%TF.GenerationSoftware,KiCad,Pcbnew,5.0-dev-unknown-d043ef5~62~ubuntu16.04.1*%
%TF.CreationDate,2018-02-24T21:05:52-07:00*%
%TF.ProjectId,ESP12-Break-02,45535031322D427265616B2D30322E6B,rev?*%
%TF.SameCoordinates,Original*%
%TF.FileFunction,Copper,L1,Top,Signal*%
%TF.FilePolarity,Positive*%
%FSLAX46Y46*%
G04 Gerber Fmt 4.6, Leading zero omitted, Abs format (unit mm)*
G04 Created by KiCad (PCBNEW 5.0-dev-unknown-d043ef5~62~ubuntu16.04.1) date Sat Feb 24 21:05:52 2018*
%MOMM*%
%LPD*%
G01*
G04 APERTURE LIST*
%ADD10R,2.500000X1.100000*%
%ADD11O,2.500000X1.100000*%
%ADD12R,1.250000X1.500000*%
%ADD13R,1.300000X1.500000*%
%ADD14R,0.650000X1.560000*%
%ADD15R,1.200000X0.900000*%
%ADD16R,1.800000X1.200000*%
%ADD17R,1.700000X0.900000*%
%ADD18C,0.685800*%
%ADD19C,0.406000*%
%ADD20C,0.406400*%
%ADD21C,0.609600*%
%ADD22C,0.203200*%
%ADD23C,0.254000*%
G04 APERTURE END LIST*
D10*
X133285000Y-57150000D03*
D11*
X133285000Y-59150000D03*
X133285000Y-61150000D03*
X133285000Y-63150000D03*
X133285000Y-65150000D03*
X133285000Y-67150000D03*
X133285000Y-69150000D03*
X133285000Y-71150000D03*
X148685000Y-71150000D03*
X148585000Y-69150000D03*
X148685000Y-67150000D03*
X148685000Y-65150000D03*
X148685000Y-63150000D03*
X148685000Y-61150000D03*
X148685000Y-59150000D03*
X148685000Y-57150000D03*
D12*
X140589000Y-94782000D03*
X140589000Y-97282000D03*
D13*
X145542000Y-81962000D03*
X145542000Y-84662000D03*
X137287000Y-88486000D03*
X137287000Y-91186000D03*
X145542000Y-88439000D03*
X145542000Y-91139000D03*
D14*
X139893000Y-100885000D03*
X141793000Y-100885000D03*
X141793000Y-103585000D03*
X140843000Y-103585000D03*
X139893000Y-103585000D03*
D12*
X137287000Y-94782000D03*
X137287000Y-97282000D03*
X143891000Y-97282000D03*
X143891000Y-94782000D03*
D13*
X137414000Y-100885000D03*
X137414000Y-103585000D03*
D15*
X144653000Y-103885000D03*
X144653000Y-100585000D03*
X150114000Y-78104000D03*
X150114000Y-74804000D03*
X131699000Y-78104000D03*
X131699000Y-74804000D03*
D13*
X146939000Y-74977000D03*
X146939000Y-77677000D03*
X137414000Y-84662000D03*
X137414000Y-81962000D03*
D12*
X135128000Y-77704000D03*
X135128000Y-75204000D03*
D16*
X143408400Y-78105000D03*
X143408400Y-74803000D03*
X138531600Y-74803000D03*
X138531600Y-78105000D03*
D17*
X141478000Y-81739000D03*
X141478000Y-85139000D03*
X141478000Y-88216000D03*
X141478000Y-91616000D03*
D18*
X148460289Y-74777660D03*
X130429000Y-80314800D03*
X140589000Y-86283800D03*
X150469600Y-73787000D03*
X150088600Y-74853800D03*
X145585170Y-79995270D03*
X140195320Y-73040370D03*
X141226153Y-74020566D03*
X146888200Y-91059000D03*
X147070518Y-87397716D03*
X135102600Y-81838800D03*
X133210110Y-73025000D03*
X133717713Y-79293155D03*
X131191000Y-67284600D03*
X136066410Y-87453567D03*
X131648200Y-79425800D03*
X146278600Y-79171800D03*
X139087474Y-76304647D03*
X147878800Y-92608400D03*
X145464280Y-75515720D03*
X140614400Y-79248000D03*
X135331200Y-93929200D03*
X142138400Y-81711800D03*
X143383000Y-78105000D03*
X141224000Y-72263000D03*
X142113000Y-94996000D03*
X140154500Y-96032000D03*
X137575200Y-96032000D03*
X134580320Y-99207500D03*
X134580320Y-89233400D03*
X146050000Y-57658000D03*
X137414000Y-81915000D03*
X141732000Y-90043000D03*
X146177000Y-100330000D03*
X141986000Y-92964000D03*
X137287000Y-97409000D03*
X145669000Y-97663000D03*
X135128000Y-77724000D03*
X137160000Y-68453000D03*
X138303000Y-60071000D03*
X142875000Y-65405000D03*
X145161000Y-72009000D03*
X140843000Y-103632000D03*
X135281800Y-59124400D03*
X144245400Y-87914700D03*
X135730700Y-61555100D03*
X138159000Y-66311200D03*
X131109400Y-69111400D03*
X135525900Y-99207500D03*
X143994200Y-79978500D03*
X144367300Y-89745900D03*
X142970000Y-90075200D03*
X135128000Y-103759000D03*
X143002000Y-72390000D03*
X138430000Y-86233000D03*
X146762200Y-70175200D03*
X141043722Y-75620778D03*
X139446000Y-85344000D03*
X138811000Y-87376000D03*
X136067800Y-89865198D03*
X148067780Y-65038220D03*
X138141600Y-92911600D03*
X146202000Y-86753510D03*
X138821600Y-90309500D03*
X142827000Y-87912700D03*
X137033209Y-78485999D03*
X137541000Y-86487000D03*
X145332800Y-68478700D03*
X146143700Y-69152500D03*
X143335100Y-100502400D03*
X151188300Y-80001700D03*
X139126721Y-79886087D03*
X135940800Y-80441800D03*
X140652690Y-83006770D03*
X139117711Y-82601819D03*
X135281800Y-57124400D03*
X134580320Y-85053200D03*
D19*
X145585170Y-79995270D02*
X145585170Y-79510337D01*
X146253200Y-76276200D02*
X147543127Y-76276200D01*
X145338800Y-77190600D02*
X146253200Y-76276200D01*
X147543127Y-76276200D02*
X148460289Y-75359038D01*
X145585170Y-79510337D02*
X145338800Y-79263967D01*
X148460289Y-74784831D02*
X148460289Y-74777660D01*
X148460289Y-75359038D02*
X148460289Y-74784831D01*
X145338800Y-79263967D02*
X145338800Y-77190600D01*
X150290700Y-63150000D02*
X150850700Y-63710000D01*
X147985000Y-63150000D02*
X150290700Y-63150000D01*
X146695500Y-81175800D02*
X146695500Y-86260010D01*
X146695500Y-86260010D02*
X146544899Y-86410611D01*
X146544899Y-86410611D02*
X146202000Y-86753510D01*
X149158599Y-74069679D02*
X149158599Y-78712701D01*
X150850700Y-72377578D02*
X149158599Y-74069679D01*
X149158599Y-78712701D02*
X146695500Y-81175800D01*
X150850700Y-63710000D02*
X150850700Y-72377578D01*
X141833600Y-85944700D02*
X141847100Y-85944700D01*
X141847100Y-85944700D02*
X143525800Y-87623400D01*
X141833600Y-85494600D02*
X141833600Y-85944700D01*
X143525800Y-87623400D02*
X143525800Y-89642900D01*
X144536300Y-91139000D02*
X145542000Y-91139000D01*
X141478000Y-85139000D02*
X141833600Y-85494600D01*
X143525800Y-89642900D02*
X143668600Y-89785700D01*
X143668600Y-89785700D02*
X143668600Y-90271300D01*
X143668600Y-90271300D02*
X144536300Y-91139000D01*
X138159000Y-66311200D02*
X140563600Y-68715800D01*
X140563600Y-68715800D02*
X140563600Y-71986292D01*
X140563600Y-71986292D02*
X139852421Y-72697471D01*
X139852421Y-72697471D02*
X140195320Y-73040370D01*
X140398697Y-76408188D02*
X140345412Y-76354903D01*
X140398697Y-77764597D02*
X140398697Y-76408188D01*
X140883254Y-74363465D02*
X141226153Y-74020566D01*
X140345412Y-74901307D02*
X140883254Y-74363465D01*
X143295600Y-80661500D02*
X140398697Y-77764597D01*
X140345412Y-76354903D02*
X140345412Y-74901307D01*
X143295600Y-80661500D02*
X143295600Y-79683300D01*
X144886869Y-79849169D02*
X144886869Y-81306869D01*
X143753100Y-79225800D02*
X144263500Y-79225800D01*
X144886869Y-81306869D02*
X145542000Y-81962000D01*
X143295600Y-79683300D02*
X143753100Y-79225800D01*
X144263500Y-79225800D02*
X144886869Y-79849169D01*
X147070518Y-87397716D02*
X146634200Y-87834034D01*
X146634200Y-87834034D02*
X146634200Y-90805000D01*
X146634200Y-90805000D02*
X146888200Y-91059000D01*
X135584811Y-71884701D02*
X134444512Y-73025000D01*
X133985000Y-65150000D02*
X134055512Y-65150000D01*
X134055512Y-65150000D02*
X135584811Y-66679299D01*
X133695043Y-73025000D02*
X133210110Y-73025000D01*
X135584811Y-66679299D02*
X135584811Y-71884701D01*
X134444512Y-73025000D02*
X133695043Y-73025000D01*
D20*
X135278823Y-91870815D02*
X135278823Y-82499956D01*
X135278823Y-82499956D02*
X135102600Y-82323733D01*
X135102600Y-82323733D02*
X135102600Y-81838800D01*
X136144000Y-95885000D02*
X136144000Y-92735992D01*
X136672000Y-96032000D02*
X136291000Y-96032000D01*
X136291000Y-96032000D02*
X136144000Y-95885000D01*
X136144000Y-92735992D02*
X135278823Y-91870815D01*
D19*
X136066410Y-87453567D02*
X136066410Y-86968634D01*
X134060612Y-79636054D02*
X133717713Y-79293155D01*
X135837434Y-81412876D02*
X134060612Y-79636054D01*
X135837434Y-86739658D02*
X135837434Y-81412876D01*
X136066410Y-86968634D02*
X135837434Y-86739658D01*
X131675933Y-67284600D02*
X131191000Y-67284600D01*
X133850400Y-67284600D02*
X131675933Y-67284600D01*
X133985000Y-67150000D02*
X133850400Y-67284600D01*
X131991099Y-79768699D02*
X131648200Y-79425800D01*
X133882010Y-99598010D02*
X133882010Y-82736156D01*
X134214600Y-99930600D02*
X133882010Y-99598010D01*
X135525900Y-99692433D02*
X135287733Y-99930600D01*
X135287733Y-99930600D02*
X134214600Y-99930600D01*
X135525900Y-99207500D02*
X135525900Y-99692433D01*
X133845888Y-82199541D02*
X133845888Y-81623488D01*
X133845888Y-81623488D02*
X131991099Y-79768699D01*
X133882010Y-82736156D02*
X133903337Y-82709413D01*
X133903337Y-82709413D02*
X133845888Y-82199541D01*
D21*
X133328900Y-75920600D02*
X131108000Y-75920600D01*
X131108000Y-75920600D02*
X130641400Y-75454000D01*
X134045500Y-75204000D02*
X133328900Y-75920600D01*
X135128000Y-75204000D02*
X134045500Y-75204000D01*
X130641400Y-72086100D02*
X131577500Y-71150000D01*
X130641400Y-75454000D02*
X130641400Y-72086100D01*
X131577500Y-71150000D02*
X133985000Y-71150000D01*
X146939000Y-78511400D02*
X146939000Y-77677000D01*
X146278600Y-79171800D02*
X146939000Y-78511400D01*
X138531600Y-74803000D02*
X138531600Y-76012600D01*
X138823647Y-76304647D02*
X139087474Y-76304647D01*
X138531600Y-76012600D02*
X138823647Y-76304647D01*
D22*
X135470899Y-78103892D02*
X135470899Y-78066899D01*
D19*
X141224000Y-68385100D02*
X141224000Y-71778067D01*
X135988900Y-63150000D02*
X141224000Y-68385100D01*
X141224000Y-71778067D02*
X141224000Y-72263000D01*
X133985000Y-63150000D02*
X135988900Y-63150000D01*
X137575200Y-96032000D02*
X136672000Y-96032000D01*
X142113000Y-95480933D02*
X142113000Y-94996000D01*
X141561933Y-96032000D02*
X142113000Y-95480933D01*
X140154500Y-96032000D02*
X141561933Y-96032000D01*
X134580320Y-98722567D02*
X134580320Y-89233400D01*
X134580320Y-99207500D02*
X134580320Y-98722567D01*
D21*
X139192000Y-96967500D02*
X139506500Y-97282000D01*
X138394500Y-91186000D02*
X139192000Y-91983500D01*
X139192000Y-91983500D02*
X139192000Y-96967500D01*
X137287000Y-91186000D02*
X138394500Y-91186000D01*
X139506500Y-97282000D02*
X140589000Y-97282000D01*
X143891000Y-94907000D02*
X141516000Y-97282000D01*
X141516000Y-97282000D02*
X140589000Y-97282000D01*
X143891000Y-94782000D02*
X143891000Y-94907000D01*
D19*
X135256200Y-59150000D02*
X135281800Y-59124400D01*
X133985000Y-59150000D02*
X135256200Y-59150000D01*
X135325600Y-61150000D02*
X135730700Y-61555100D01*
X133985000Y-61150000D02*
X135325600Y-61150000D01*
X143295600Y-86603000D02*
X143295600Y-80661500D01*
X144245400Y-87552800D02*
X143295600Y-86603000D01*
X144245400Y-87914700D02*
X144245400Y-87552800D01*
X131148000Y-69150000D02*
X131109400Y-69111400D01*
X133985000Y-69150000D02*
X131148000Y-69150000D01*
D21*
X139893000Y-99185500D02*
X140589000Y-98489500D01*
X139893000Y-100885000D02*
X139893000Y-99185500D01*
X140589000Y-97282000D02*
X140589000Y-98489500D01*
X145542000Y-84662000D02*
X144434500Y-84662000D01*
X135574000Y-75204000D02*
X136019900Y-75204000D01*
X135574000Y-75204000D02*
X135128000Y-75204000D01*
X138531600Y-74803000D02*
X137174100Y-74803000D01*
X145401600Y-87091100D02*
X145542000Y-87231500D01*
X145401600Y-86009900D02*
X145401600Y-87091100D01*
X145542000Y-85869500D02*
X145401600Y-86009900D01*
X145542000Y-84662000D02*
X145542000Y-85869500D01*
X143994200Y-84221700D02*
X144434500Y-84662000D01*
X143994200Y-79978500D02*
X143994200Y-84221700D01*
X145542000Y-88439000D02*
X145542000Y-87835200D01*
X145542000Y-87835200D02*
X145542000Y-87231500D01*
X144367300Y-89009900D02*
X145542000Y-87835200D01*
X144367300Y-89745900D02*
X144367300Y-89009900D01*
X142970000Y-92653500D02*
X143891000Y-93574500D01*
X142970000Y-90075200D02*
X142970000Y-92653500D01*
X143891000Y-94782000D02*
X143891000Y-93574500D01*
X136420900Y-74803000D02*
X136019900Y-75204000D01*
X137174100Y-74803000D02*
X136420900Y-74803000D01*
D19*
X139787001Y-76586204D02*
X139787001Y-74472157D01*
X139787001Y-74472157D02*
X141119671Y-73139487D01*
X138845200Y-84662000D02*
X139840279Y-83666921D01*
X142659101Y-72732899D02*
X143002000Y-72390000D01*
X139840279Y-83666921D02*
X139840279Y-76639482D01*
X141119671Y-73139487D02*
X142252513Y-73139487D01*
X139840279Y-76639482D02*
X139787001Y-76586204D01*
X142252513Y-73139487D02*
X142659101Y-72732899D01*
X138845200Y-84662000D02*
X138430000Y-85077200D01*
X138430000Y-85748067D02*
X138430000Y-86233000D01*
X138430000Y-85077200D02*
X138430000Y-85748067D01*
X147985000Y-69150000D02*
X147985000Y-69185000D01*
X147955000Y-69215000D02*
X147722400Y-69215000D01*
X147985000Y-69185000D02*
X147955000Y-69215000D01*
X147722400Y-69215000D02*
X146762200Y-70175200D01*
X137414000Y-84662000D02*
X138419700Y-84662000D01*
X138845200Y-84662000D02*
X138419700Y-84662000D01*
X149725400Y-67150000D02*
X150290700Y-67715300D01*
X150290700Y-67715300D02*
X150290700Y-71525300D01*
X150290700Y-71525300D02*
X146839000Y-74977000D01*
X147985000Y-67150000D02*
X149725400Y-67150000D01*
X142152700Y-74803000D02*
X141861500Y-74803000D01*
X141386621Y-75277879D02*
X141043722Y-75620778D01*
X141861500Y-74803000D02*
X141386621Y-75277879D01*
X146665000Y-74803000D02*
X146839000Y-74977000D01*
X142152700Y-74803000D02*
X146665000Y-74803000D01*
X139446000Y-85828933D02*
X139446000Y-85344000D01*
X139446000Y-86741000D02*
X139446000Y-85828933D01*
X138811000Y-87376000D02*
X139446000Y-86741000D01*
X146939000Y-74977000D02*
X146839000Y-74977000D01*
X143408400Y-74803000D02*
X142152700Y-74803000D01*
X143408400Y-74803000D02*
X142152700Y-74803000D01*
X136067800Y-90350131D02*
X136067800Y-89865198D01*
X137109603Y-92911600D02*
X136067800Y-91869797D01*
X138141600Y-92911600D02*
X137109603Y-92911600D01*
X136067800Y-91869797D02*
X136067800Y-90350131D01*
X138821600Y-90309500D02*
X139977100Y-89154000D01*
X142827000Y-88757800D02*
X142827000Y-87912700D01*
X139977100Y-89154000D02*
X142430800Y-89154000D01*
X142430800Y-89154000D02*
X142827000Y-88757800D01*
D20*
X137033209Y-78970932D02*
X137033209Y-78485999D01*
X137310277Y-79248000D02*
X137033209Y-78970932D01*
X138419401Y-79618401D02*
X138049000Y-79248000D01*
X138049000Y-79248000D02*
X137310277Y-79248000D01*
D19*
X138419401Y-82879099D02*
X138419401Y-79618401D01*
X138052500Y-83246000D02*
X138419401Y-82879099D01*
X136915300Y-83246000D02*
X138052500Y-83246000D01*
X137541000Y-86487000D02*
X137056067Y-86487000D01*
X137056067Y-86487000D02*
X136408200Y-85839133D01*
X136408200Y-85839133D02*
X136408200Y-83753100D01*
X136408200Y-83753100D02*
X136915300Y-83246000D01*
X145332800Y-62896500D02*
X145332800Y-68478700D01*
X147079300Y-61150000D02*
X145332800Y-62896500D01*
X147985000Y-61150000D02*
X147079300Y-61150000D01*
X132067101Y-72326699D02*
X134353101Y-72326699D01*
X144881300Y-62253700D02*
X147985000Y-59150000D01*
X131699000Y-72694800D02*
X132067101Y-72326699D01*
X131665200Y-62789000D02*
X132209900Y-62244300D01*
X135026400Y-71653400D02*
X135026400Y-66910600D01*
X131699000Y-74804000D02*
X131699000Y-72694800D01*
X132303100Y-66244300D02*
X131665200Y-65606400D01*
X135441300Y-62253700D02*
X144881300Y-62253700D01*
X134353101Y-72326699D02*
X135026400Y-71653400D01*
X135026400Y-66910600D02*
X134360100Y-66244300D01*
X134360100Y-66244300D02*
X132303100Y-66244300D01*
X135431900Y-62244300D02*
X135441300Y-62253700D01*
X131665200Y-65606400D02*
X131665200Y-62789000D01*
X132209900Y-62244300D02*
X135431900Y-62244300D01*
X150290700Y-61535600D02*
X149676300Y-62150000D01*
X150290700Y-57479100D02*
X150290700Y-61535600D01*
X147985000Y-57150000D02*
X149961600Y-57150000D01*
X149961600Y-57150000D02*
X150290700Y-57479100D01*
X149676300Y-62150000D02*
X147647300Y-62150000D01*
X147647300Y-62150000D02*
X145967300Y-63830000D01*
X145967300Y-63830000D02*
X145967300Y-68125100D01*
X145967300Y-68125100D02*
X146143700Y-68301500D01*
X146143700Y-68301500D02*
X146143700Y-69152500D01*
X138419700Y-103017100D02*
X137851800Y-103585000D01*
X137851800Y-103585000D02*
X137414000Y-103585000D01*
X138419700Y-94934000D02*
X138419700Y-103017100D01*
X138267700Y-94782000D02*
X138419700Y-94934000D01*
X137287000Y-94782000D02*
X138267700Y-94782000D01*
X144023000Y-102449300D02*
X139893000Y-102449300D01*
X144653000Y-103079300D02*
X144023000Y-102449300D01*
X144653000Y-103885000D02*
X144653000Y-103079300D01*
X139893000Y-103017100D02*
X138419700Y-103017100D01*
X139893000Y-103585000D02*
X139893000Y-103017100D01*
X139893000Y-103017100D02*
X139893000Y-102449300D01*
X143417700Y-100585000D02*
X143335100Y-100502400D01*
X144653000Y-100585000D02*
X143417700Y-100585000D01*
X135915400Y-104011500D02*
X135915400Y-102383600D01*
X141793000Y-104720700D02*
X136624600Y-104720700D01*
X136624600Y-104720700D02*
X135915400Y-104011500D01*
X141793000Y-103585000D02*
X141793000Y-104720700D01*
X135915400Y-102383600D02*
X137414000Y-100885000D01*
X150114000Y-78927400D02*
X150114000Y-78104000D01*
X151188300Y-80001700D02*
X150114000Y-78927400D01*
X139117711Y-82601819D02*
X139117711Y-79895097D01*
X139117711Y-79895097D02*
X139126721Y-79886087D01*
D20*
X132574700Y-77075700D02*
X132574700Y-77032800D01*
X135940800Y-80441800D02*
X132574700Y-77075700D01*
D19*
X141478000Y-85139000D02*
X141478000Y-83832080D01*
X140995589Y-83349669D02*
X140652690Y-83006770D01*
X141478000Y-83832080D02*
X140995589Y-83349669D01*
X134916300Y-57124400D02*
X134890700Y-57150000D01*
X135281800Y-57124400D02*
X134916300Y-57124400D01*
X133985000Y-57150000D02*
X134890700Y-57150000D01*
X133985000Y-57150000D02*
X131679300Y-57150000D01*
X129980800Y-58848500D02*
X131679300Y-57150000D01*
X129980800Y-75736000D02*
X129980800Y-58848500D01*
X131277600Y-77032800D02*
X129980800Y-75736000D01*
X132574700Y-77032800D02*
X131277600Y-77032800D01*
X132705000Y-79417600D02*
X134404299Y-81116899D01*
X134580320Y-84568267D02*
X134580320Y-85053200D01*
X134404299Y-81116899D02*
X134404299Y-82168186D01*
X132705000Y-78960000D02*
X132705000Y-79417600D01*
X134484132Y-82876741D02*
X134580320Y-82972929D01*
X131849000Y-78104000D02*
X132705000Y-78960000D01*
X131699000Y-78104000D02*
X131849000Y-78104000D01*
X134404299Y-82168186D02*
X134484132Y-82876741D01*
X134580320Y-82972929D02*
X134580320Y-84568267D01*
X137287000Y-88486000D02*
X138292700Y-88486000D01*
X141203400Y-88490600D02*
X141478000Y-88216000D01*
X138297300Y-88490600D02*
X141203400Y-88490600D01*
X138292700Y-88486000D02*
X138297300Y-88490600D01*
D23*
G36*
X148263147Y-88900000D02*
X147425807Y-89946675D01*
X147382579Y-89999189D01*
X147371468Y-90035623D01*
X147353935Y-90069433D01*
X147351103Y-90102397D01*
X147341451Y-90134046D01*
X147345128Y-90171956D01*
X147341868Y-90209903D01*
X147351867Y-90241443D01*
X147355061Y-90274375D01*
X147372965Y-90307993D01*
X147384476Y-90344300D01*
X147428280Y-90396337D01*
X148489601Y-91693509D01*
X148489600Y-93844004D01*
X147467240Y-94979960D01*
X147445492Y-94994492D01*
X147420504Y-95031890D01*
X147414228Y-95038863D01*
X147401156Y-95060847D01*
X147367163Y-95111721D01*
X147365283Y-95121175D01*
X147360357Y-95129458D01*
X147351592Y-95190003D01*
X147339658Y-95250000D01*
X147341538Y-95259452D01*
X147340157Y-95268991D01*
X147355228Y-95328276D01*
X147367163Y-95388279D01*
X147372519Y-95396295D01*
X147374893Y-95405634D01*
X147411504Y-95454640D01*
X147425721Y-95475917D01*
X147432358Y-95482554D01*
X147459275Y-95518584D01*
X147481756Y-95531952D01*
X148469803Y-96520000D01*
X147475085Y-97514719D01*
X147445492Y-97534492D01*
X147367163Y-97651721D01*
X147339658Y-97790000D01*
X147367163Y-97928279D01*
X147445492Y-98045508D01*
X147475085Y-98065281D01*
X148616600Y-99206797D01*
X148616601Y-101475682D01*
X147700066Y-102621351D01*
X147700064Y-102621353D01*
X146696513Y-103875792D01*
X146683492Y-103884493D01*
X146652772Y-103930470D01*
X146640456Y-103945864D01*
X146633423Y-103959427D01*
X146605163Y-104001721D01*
X146601225Y-104021518D01*
X146591935Y-104039433D01*
X146587582Y-104090106D01*
X146584600Y-104105097D01*
X146584600Y-104124818D01*
X146579868Y-104179903D01*
X146584600Y-104194829D01*
X146584601Y-106481963D01*
X140343542Y-110322615D01*
X133704400Y-105856284D01*
X133704400Y-100102616D01*
X133839900Y-100238117D01*
X133866810Y-100278390D01*
X133907082Y-100305299D01*
X133907084Y-100305301D01*
X133920370Y-100314178D01*
X134026377Y-100385010D01*
X134167092Y-100413000D01*
X134167096Y-100413000D01*
X134214599Y-100422449D01*
X134262102Y-100413000D01*
X135240229Y-100413000D01*
X135287733Y-100422449D01*
X135335237Y-100413000D01*
X135335241Y-100413000D01*
X135475956Y-100385010D01*
X135635523Y-100278390D01*
X135662434Y-100238115D01*
X135833415Y-100067134D01*
X135873690Y-100040223D01*
X135980310Y-99880656D01*
X136008300Y-99739941D01*
X136008300Y-99739938D01*
X136017749Y-99692434D01*
X136008300Y-99644930D01*
X136008300Y-99605166D01*
X136053461Y-99560005D01*
X136148200Y-99331283D01*
X136148200Y-99083717D01*
X136053461Y-98854995D01*
X135878405Y-98679939D01*
X135649683Y-98585200D01*
X135402117Y-98585200D01*
X135173395Y-98679939D01*
X135062720Y-98790614D01*
X135062720Y-97567750D01*
X136027000Y-97567750D01*
X136027000Y-98158309D01*
X136123673Y-98391698D01*
X136302301Y-98570327D01*
X136535690Y-98667000D01*
X137001250Y-98667000D01*
X137160000Y-98508250D01*
X137160000Y-97409000D01*
X136185750Y-97409000D01*
X136027000Y-97567750D01*
X135062720Y-97567750D01*
X135062720Y-92337210D01*
X135661401Y-92935892D01*
X135661400Y-95837472D01*
X135651946Y-95885000D01*
X135661400Y-95932528D01*
X135689401Y-96073300D01*
X135796065Y-96232935D01*
X135836364Y-96259862D01*
X135916138Y-96339636D01*
X135943065Y-96379935D01*
X136027000Y-96436019D01*
X136027000Y-96996250D01*
X136185750Y-97155000D01*
X137160000Y-97155000D01*
X137160000Y-97135000D01*
X137414000Y-97135000D01*
X137414000Y-97155000D01*
X137434000Y-97155000D01*
X137434000Y-97409000D01*
X137414000Y-97409000D01*
X137414000Y-98508250D01*
X137572750Y-98667000D01*
X137937300Y-98667000D01*
X137937301Y-99850127D01*
X136764000Y-99850127D01*
X136654984Y-99871812D01*
X136562564Y-99933564D01*
X136500812Y-100025984D01*
X136479127Y-100135000D01*
X136479127Y-101137656D01*
X135607883Y-102008901D01*
X135567611Y-102035810D01*
X135540702Y-102076082D01*
X135540699Y-102076085D01*
X135460990Y-102195378D01*
X135423551Y-102383600D01*
X135433001Y-102431109D01*
X135433000Y-103963996D01*
X135423551Y-104011500D01*
X135433000Y-104059004D01*
X135433000Y-104059007D01*
X135460990Y-104199722D01*
X135567610Y-104359290D01*
X135607885Y-104386201D01*
X136249901Y-105028218D01*
X136276810Y-105068490D01*
X136317082Y-105095399D01*
X136317084Y-105095401D01*
X136361206Y-105124882D01*
X136436377Y-105175110D01*
X136577092Y-105203100D01*
X136577096Y-105203100D01*
X136624599Y-105212549D01*
X136672102Y-105203100D01*
X141745492Y-105203100D01*
X141793000Y-105212550D01*
X141840508Y-105203100D01*
X141981223Y-105175110D01*
X142140790Y-105068490D01*
X142247410Y-104908923D01*
X142284850Y-104720700D01*
X142275400Y-104673192D01*
X142275400Y-104595859D01*
X142319436Y-104566436D01*
X142381188Y-104474016D01*
X142402873Y-104365000D01*
X142402873Y-102931700D01*
X143823184Y-102931700D01*
X144043501Y-103152017D01*
X143943984Y-103171812D01*
X143851564Y-103233564D01*
X143789812Y-103325984D01*
X143768127Y-103435000D01*
X143768127Y-104335000D01*
X143789812Y-104444016D01*
X143851564Y-104536436D01*
X143943984Y-104598188D01*
X144053000Y-104619873D01*
X145253000Y-104619873D01*
X145362016Y-104598188D01*
X145454436Y-104536436D01*
X145516188Y-104444016D01*
X145537873Y-104335000D01*
X145537873Y-103435000D01*
X145516188Y-103325984D01*
X145454436Y-103233564D01*
X145362016Y-103171812D01*
X145253000Y-103150127D01*
X145135400Y-103150127D01*
X145135400Y-103126804D01*
X145144849Y-103079300D01*
X145135400Y-103031796D01*
X145135400Y-103031792D01*
X145107410Y-102891077D01*
X145000790Y-102731510D01*
X144960515Y-102704599D01*
X144397701Y-102141785D01*
X144370790Y-102101510D01*
X144211223Y-101994890D01*
X144070508Y-101966900D01*
X144070504Y-101966900D01*
X144023000Y-101957451D01*
X143975496Y-101966900D01*
X139940508Y-101966900D01*
X139893000Y-101957450D01*
X139845492Y-101966900D01*
X139704777Y-101994890D01*
X139545210Y-102101510D01*
X139438590Y-102261077D01*
X139401150Y-102449300D01*
X139410601Y-102496813D01*
X139410601Y-102534700D01*
X138902100Y-102534700D01*
X138902100Y-97503782D01*
X139052720Y-97654403D01*
X139085315Y-97703185D01*
X139278557Y-97832304D01*
X139448963Y-97866200D01*
X139506499Y-97877645D01*
X139564035Y-97866200D01*
X139679127Y-97866200D01*
X139679127Y-98032000D01*
X139700812Y-98141016D01*
X139762564Y-98233436D01*
X139854984Y-98295188D01*
X139940182Y-98312135D01*
X139520597Y-98731721D01*
X139471816Y-98764315D01*
X139366642Y-98921720D01*
X139342697Y-98957557D01*
X139297355Y-99185500D01*
X139308801Y-99243041D01*
X139308801Y-99990015D01*
X139304812Y-99995984D01*
X139283127Y-100105000D01*
X139283127Y-101665000D01*
X139304812Y-101774016D01*
X139366564Y-101866436D01*
X139458984Y-101928188D01*
X139568000Y-101949873D01*
X140218000Y-101949873D01*
X140327016Y-101928188D01*
X140419436Y-101866436D01*
X140481188Y-101774016D01*
X140502873Y-101665000D01*
X140502873Y-100105000D01*
X141183127Y-100105000D01*
X141183127Y-101665000D01*
X141204812Y-101774016D01*
X141266564Y-101866436D01*
X141358984Y-101928188D01*
X141468000Y-101949873D01*
X142118000Y-101949873D01*
X142227016Y-101928188D01*
X142319436Y-101866436D01*
X142381188Y-101774016D01*
X142402873Y-101665000D01*
X142402873Y-100378617D01*
X142712800Y-100378617D01*
X142712800Y-100626183D01*
X142807539Y-100854905D01*
X142982595Y-101029961D01*
X143211317Y-101124700D01*
X143458883Y-101124700D01*
X143597219Y-101067400D01*
X143774572Y-101067400D01*
X143789812Y-101144016D01*
X143851564Y-101236436D01*
X143943984Y-101298188D01*
X144053000Y-101319873D01*
X145253000Y-101319873D01*
X145362016Y-101298188D01*
X145454436Y-101236436D01*
X145516188Y-101144016D01*
X145537873Y-101035000D01*
X145537873Y-100135000D01*
X145516188Y-100025984D01*
X145454436Y-99933564D01*
X145362016Y-99871812D01*
X145253000Y-99850127D01*
X144053000Y-99850127D01*
X143943984Y-99871812D01*
X143851564Y-99933564D01*
X143789812Y-100025984D01*
X143781340Y-100068574D01*
X143687605Y-99974839D01*
X143458883Y-99880100D01*
X143211317Y-99880100D01*
X142982595Y-99974839D01*
X142807539Y-100149895D01*
X142712800Y-100378617D01*
X142402873Y-100378617D01*
X142402873Y-100105000D01*
X142381188Y-99995984D01*
X142319436Y-99903564D01*
X142227016Y-99841812D01*
X142118000Y-99820127D01*
X141468000Y-99820127D01*
X141358984Y-99841812D01*
X141266564Y-99903564D01*
X141204812Y-99995984D01*
X141183127Y-100105000D01*
X140502873Y-100105000D01*
X140481188Y-99995984D01*
X140477200Y-99990015D01*
X140477200Y-99427482D01*
X140961403Y-98943280D01*
X141010185Y-98910685D01*
X141139304Y-98717443D01*
X141173200Y-98547037D01*
X141173200Y-98547036D01*
X141184645Y-98489500D01*
X141173200Y-98431964D01*
X141173200Y-98316873D01*
X141214000Y-98316873D01*
X141323016Y-98295188D01*
X141415436Y-98233436D01*
X141477188Y-98141016D01*
X141498873Y-98032000D01*
X141498873Y-97874238D01*
X141516000Y-97877645D01*
X141573536Y-97866200D01*
X141573537Y-97866200D01*
X141743943Y-97832304D01*
X141937185Y-97703185D01*
X141969781Y-97654401D01*
X142056432Y-97567750D01*
X142631000Y-97567750D01*
X142631000Y-98158309D01*
X142727673Y-98391698D01*
X142906301Y-98570327D01*
X143139690Y-98667000D01*
X143605250Y-98667000D01*
X143764000Y-98508250D01*
X143764000Y-97409000D01*
X144018000Y-97409000D01*
X144018000Y-98508250D01*
X144176750Y-98667000D01*
X144642310Y-98667000D01*
X144875699Y-98570327D01*
X145054327Y-98391698D01*
X145151000Y-98158309D01*
X145151000Y-97567750D01*
X144992250Y-97409000D01*
X144018000Y-97409000D01*
X143764000Y-97409000D01*
X142789750Y-97409000D01*
X142631000Y-97567750D01*
X142056432Y-97567750D01*
X142631000Y-96993183D01*
X142631000Y-96996250D01*
X142789750Y-97155000D01*
X143764000Y-97155000D01*
X143764000Y-96055750D01*
X144018000Y-96055750D01*
X144018000Y-97155000D01*
X144992250Y-97155000D01*
X145151000Y-96996250D01*
X145151000Y-96405691D01*
X145054327Y-96172302D01*
X144875699Y-95993673D01*
X144642310Y-95897000D01*
X144176750Y-95897000D01*
X144018000Y-96055750D01*
X143764000Y-96055750D01*
X143666217Y-95957967D01*
X143807311Y-95816873D01*
X144516000Y-95816873D01*
X144625016Y-95795188D01*
X144717436Y-95733436D01*
X144779188Y-95641016D01*
X144800873Y-95532000D01*
X144800873Y-94032000D01*
X144779188Y-93922984D01*
X144717436Y-93830564D01*
X144625016Y-93768812D01*
X144516000Y-93747127D01*
X144475200Y-93747127D01*
X144475200Y-93632036D01*
X144486645Y-93574500D01*
X144459724Y-93439161D01*
X144441304Y-93346557D01*
X144312185Y-93153315D01*
X144263403Y-93120720D01*
X143554200Y-92411518D01*
X143554200Y-90839116D01*
X144161601Y-91446518D01*
X144188510Y-91486790D01*
X144228782Y-91513699D01*
X144228784Y-91513701D01*
X144284380Y-91550849D01*
X144348077Y-91593410D01*
X144488792Y-91621400D01*
X144488795Y-91621400D01*
X144536299Y-91630849D01*
X144583803Y-91621400D01*
X144607127Y-91621400D01*
X144607127Y-91889000D01*
X144628812Y-91998016D01*
X144690564Y-92090436D01*
X144782984Y-92152188D01*
X144892000Y-92173873D01*
X146192000Y-92173873D01*
X146301016Y-92152188D01*
X146393436Y-92090436D01*
X146455188Y-91998016D01*
X146476873Y-91889000D01*
X146476873Y-91527739D01*
X146535695Y-91586561D01*
X146764417Y-91681300D01*
X147011983Y-91681300D01*
X147240705Y-91586561D01*
X147415761Y-91411505D01*
X147510500Y-91182783D01*
X147510500Y-90935217D01*
X147415761Y-90706495D01*
X147240705Y-90531439D01*
X147116600Y-90480033D01*
X147116600Y-88033850D01*
X147130434Y-88020016D01*
X147194301Y-88020016D01*
X147423023Y-87925277D01*
X147456548Y-87891752D01*
X148263147Y-88900000D01*
X148263147Y-88900000D01*
G37*
X148263147Y-88900000D02*
X147425807Y-89946675D01*
X147382579Y-89999189D01*
X147371468Y-90035623D01*
X147353935Y-90069433D01*
X147351103Y-90102397D01*
X147341451Y-90134046D01*
X147345128Y-90171956D01*
X147341868Y-90209903D01*
X147351867Y-90241443D01*
X147355061Y-90274375D01*
X147372965Y-90307993D01*
X147384476Y-90344300D01*
X147428280Y-90396337D01*
X148489601Y-91693509D01*
X148489600Y-93844004D01*
X147467240Y-94979960D01*
X147445492Y-94994492D01*
X147420504Y-95031890D01*
X147414228Y-95038863D01*
X147401156Y-95060847D01*
X147367163Y-95111721D01*
X147365283Y-95121175D01*
X147360357Y-95129458D01*
X147351592Y-95190003D01*
X147339658Y-95250000D01*
X147341538Y-95259452D01*
X147340157Y-95268991D01*
X147355228Y-95328276D01*
X147367163Y-95388279D01*
X147372519Y-95396295D01*
X147374893Y-95405634D01*
X147411504Y-95454640D01*
X147425721Y-95475917D01*
X147432358Y-95482554D01*
X147459275Y-95518584D01*
X147481756Y-95531952D01*
X148469803Y-96520000D01*
X147475085Y-97514719D01*
X147445492Y-97534492D01*
X147367163Y-97651721D01*
X147339658Y-97790000D01*
X147367163Y-97928279D01*
X147445492Y-98045508D01*
X147475085Y-98065281D01*
X148616600Y-99206797D01*
X148616601Y-101475682D01*
X147700066Y-102621351D01*
X147700064Y-102621353D01*
X146696513Y-103875792D01*
X146683492Y-103884493D01*
X146652772Y-103930470D01*
X146640456Y-103945864D01*
X146633423Y-103959427D01*
X146605163Y-104001721D01*
X146601225Y-104021518D01*
X146591935Y-104039433D01*
X146587582Y-104090106D01*
X146584600Y-104105097D01*
X146584600Y-104124818D01*
X146579868Y-104179903D01*
X146584600Y-104194829D01*
X146584601Y-106481963D01*
X140343542Y-110322615D01*
X133704400Y-105856284D01*
X133704400Y-100102616D01*
X133839900Y-100238117D01*
X133866810Y-100278390D01*
X133907082Y-100305299D01*
X133907084Y-100305301D01*
X133920370Y-100314178D01*
X134026377Y-100385010D01*
X134167092Y-100413000D01*
X134167096Y-100413000D01*
X134214599Y-100422449D01*
X134262102Y-100413000D01*
X135240229Y-100413000D01*
X135287733Y-100422449D01*
X135335237Y-100413000D01*
X135335241Y-100413000D01*
X135475956Y-100385010D01*
X135635523Y-100278390D01*
X135662434Y-100238115D01*
X135833415Y-100067134D01*
X135873690Y-100040223D01*
X135980310Y-99880656D01*
X136008300Y-99739941D01*
X136008300Y-99739938D01*
X136017749Y-99692434D01*
X136008300Y-99644930D01*
X136008300Y-99605166D01*
X136053461Y-99560005D01*
X136148200Y-99331283D01*
X136148200Y-99083717D01*
X136053461Y-98854995D01*
X135878405Y-98679939D01*
X135649683Y-98585200D01*
X135402117Y-98585200D01*
X135173395Y-98679939D01*
X135062720Y-98790614D01*
X135062720Y-97567750D01*
X136027000Y-97567750D01*
X136027000Y-98158309D01*
X136123673Y-98391698D01*
X136302301Y-98570327D01*
X136535690Y-98667000D01*
X137001250Y-98667000D01*
X137160000Y-98508250D01*
X137160000Y-97409000D01*
X136185750Y-97409000D01*
X136027000Y-97567750D01*
X135062720Y-97567750D01*
X135062720Y-92337210D01*
X135661401Y-92935892D01*
X135661400Y-95837472D01*
X135651946Y-95885000D01*
X135661400Y-95932528D01*
X135689401Y-96073300D01*
X135796065Y-96232935D01*
X135836364Y-96259862D01*
X135916138Y-96339636D01*
X135943065Y-96379935D01*
X136027000Y-96436019D01*
X136027000Y-96996250D01*
X136185750Y-97155000D01*
X137160000Y-97155000D01*
X137160000Y-97135000D01*
X137414000Y-97135000D01*
X137414000Y-97155000D01*
X137434000Y-97155000D01*
X137434000Y-97409000D01*
X137414000Y-97409000D01*
X137414000Y-98508250D01*
X137572750Y-98667000D01*
X137937300Y-98667000D01*
X137937301Y-99850127D01*
X136764000Y-99850127D01*
X136654984Y-99871812D01*
X136562564Y-99933564D01*
X136500812Y-100025984D01*
X136479127Y-100135000D01*
X136479127Y-101137656D01*
X135607883Y-102008901D01*
X135567611Y-102035810D01*
X135540702Y-102076082D01*
X135540699Y-102076085D01*
X135460990Y-102195378D01*
X135423551Y-102383600D01*
X135433001Y-102431109D01*
X135433000Y-103963996D01*
X135423551Y-104011500D01*
X135433000Y-104059004D01*
X135433000Y-104059007D01*
X135460990Y-104199722D01*
X135567610Y-104359290D01*
X135607885Y-104386201D01*
X136249901Y-105028218D01*
X136276810Y-105068490D01*
X136317082Y-105095399D01*
X136317084Y-105095401D01*
X136361206Y-105124882D01*
X136436377Y-105175110D01*
X136577092Y-105203100D01*
X136577096Y-105203100D01*
X136624599Y-105212549D01*
X136672102Y-105203100D01*
X141745492Y-105203100D01*
X141793000Y-105212550D01*
X141840508Y-105203100D01*
X141981223Y-105175110D01*
X142140790Y-105068490D01*
X142247410Y-104908923D01*
X142284850Y-104720700D01*
X142275400Y-104673192D01*
X142275400Y-104595859D01*
X142319436Y-104566436D01*
X142381188Y-104474016D01*
X142402873Y-104365000D01*
X142402873Y-102931700D01*
X143823184Y-102931700D01*
X144043501Y-103152017D01*
X143943984Y-103171812D01*
X143851564Y-103233564D01*
X143789812Y-103325984D01*
X143768127Y-103435000D01*
X143768127Y-104335000D01*
X143789812Y-104444016D01*
X143851564Y-104536436D01*
X143943984Y-104598188D01*
X144053000Y-104619873D01*
X145253000Y-104619873D01*
X145362016Y-104598188D01*
X145454436Y-104536436D01*
X145516188Y-104444016D01*
X145537873Y-104335000D01*
X145537873Y-103435000D01*
X145516188Y-103325984D01*
X145454436Y-103233564D01*
X145362016Y-103171812D01*
X145253000Y-103150127D01*
X145135400Y-103150127D01*
X145135400Y-103126804D01*
X145144849Y-103079300D01*
X145135400Y-103031796D01*
X145135400Y-103031792D01*
X145107410Y-102891077D01*
X145000790Y-102731510D01*
X144960515Y-102704599D01*
X144397701Y-102141785D01*
X144370790Y-102101510D01*
X144211223Y-101994890D01*
X144070508Y-101966900D01*
X144070504Y-101966900D01*
X144023000Y-101957451D01*
X143975496Y-101966900D01*
X139940508Y-101966900D01*
X139893000Y-101957450D01*
X139845492Y-101966900D01*
X139704777Y-101994890D01*
X139545210Y-102101510D01*
X139438590Y-102261077D01*
X139401150Y-102449300D01*
X139410601Y-102496813D01*
X139410601Y-102534700D01*
X138902100Y-102534700D01*
X138902100Y-97503782D01*
X139052720Y-97654403D01*
X139085315Y-97703185D01*
X139278557Y-97832304D01*
X139448963Y-97866200D01*
X139506499Y-97877645D01*
X139564035Y-97866200D01*
X139679127Y-97866200D01*
X139679127Y-98032000D01*
X139700812Y-98141016D01*
X139762564Y-98233436D01*
X139854984Y-98295188D01*
X139940182Y-98312135D01*
X139520597Y-98731721D01*
X139471816Y-98764315D01*
X139366642Y-98921720D01*
X139342697Y-98957557D01*
X139297355Y-99185500D01*
X139308801Y-99243041D01*
X139308801Y-99990015D01*
X139304812Y-99995984D01*
X139283127Y-100105000D01*
X139283127Y-101665000D01*
X139304812Y-101774016D01*
X139366564Y-101866436D01*
X139458984Y-101928188D01*
X139568000Y-101949873D01*
X140218000Y-101949873D01*
X140327016Y-101928188D01*
X140419436Y-101866436D01*
X140481188Y-101774016D01*
X140502873Y-101665000D01*
X140502873Y-100105000D01*
X141183127Y-100105000D01*
X141183127Y-101665000D01*
X141204812Y-101774016D01*
X141266564Y-101866436D01*
X141358984Y-101928188D01*
X141468000Y-101949873D01*
X142118000Y-101949873D01*
X142227016Y-101928188D01*
X142319436Y-101866436D01*
X142381188Y-101774016D01*
X142402873Y-101665000D01*
X142402873Y-100378617D01*
X142712800Y-100378617D01*
X142712800Y-100626183D01*
X142807539Y-100854905D01*
X142982595Y-101029961D01*
X143211317Y-101124700D01*
X143458883Y-101124700D01*
X143597219Y-101067400D01*
X143774572Y-101067400D01*
X143789812Y-101144016D01*
X143851564Y-101236436D01*
X143943984Y-101298188D01*
X144053000Y-101319873D01*
X145253000Y-101319873D01*
X145362016Y-101298188D01*
X145454436Y-101236436D01*
X145516188Y-101144016D01*
X145537873Y-101035000D01*
X145537873Y-100135000D01*
X145516188Y-100025984D01*
X145454436Y-99933564D01*
X145362016Y-99871812D01*
X145253000Y-99850127D01*
X144053000Y-99850127D01*
X143943984Y-99871812D01*
X143851564Y-99933564D01*
X143789812Y-100025984D01*
X143781340Y-100068574D01*
X143687605Y-99974839D01*
X143458883Y-99880100D01*
X143211317Y-99880100D01*
X142982595Y-99974839D01*
X142807539Y-100149895D01*
X142712800Y-100378617D01*
X142402873Y-100378617D01*
X142402873Y-100105000D01*
X142381188Y-99995984D01*
X142319436Y-99903564D01*
X142227016Y-99841812D01*
X142118000Y-99820127D01*
X141468000Y-99820127D01*
X141358984Y-99841812D01*
X141266564Y-99903564D01*
X141204812Y-99995984D01*
X141183127Y-100105000D01*
X140502873Y-100105000D01*
X140481188Y-99995984D01*
X140477200Y-99990015D01*
X140477200Y-99427482D01*
X140961403Y-98943280D01*
X141010185Y-98910685D01*
X141139304Y-98717443D01*
X141173200Y-98547037D01*
X141173200Y-98547036D01*
X141184645Y-98489500D01*
X141173200Y-98431964D01*
X141173200Y-98316873D01*
X141214000Y-98316873D01*
X141323016Y-98295188D01*
X141415436Y-98233436D01*
X141477188Y-98141016D01*
X141498873Y-98032000D01*
X141498873Y-97874238D01*
X141516000Y-97877645D01*
X141573536Y-97866200D01*
X141573537Y-97866200D01*
X141743943Y-97832304D01*
X141937185Y-97703185D01*
X141969781Y-97654401D01*
X142056432Y-97567750D01*
X142631000Y-97567750D01*
X142631000Y-98158309D01*
X142727673Y-98391698D01*
X142906301Y-98570327D01*
X143139690Y-98667000D01*
X143605250Y-98667000D01*
X143764000Y-98508250D01*
X143764000Y-97409000D01*
X144018000Y-97409000D01*
X144018000Y-98508250D01*
X144176750Y-98667000D01*
X144642310Y-98667000D01*
X144875699Y-98570327D01*
X145054327Y-98391698D01*
X145151000Y-98158309D01*
X145151000Y-97567750D01*
X144992250Y-97409000D01*
X144018000Y-97409000D01*
X143764000Y-97409000D01*
X142789750Y-97409000D01*
X142631000Y-97567750D01*
X142056432Y-97567750D01*
X142631000Y-96993183D01*
X142631000Y-96996250D01*
X142789750Y-97155000D01*
X143764000Y-97155000D01*
X143764000Y-96055750D01*
X144018000Y-96055750D01*
X144018000Y-97155000D01*
X144992250Y-97155000D01*
X145151000Y-96996250D01*
X145151000Y-96405691D01*
X145054327Y-96172302D01*
X144875699Y-95993673D01*
X144642310Y-95897000D01*
X144176750Y-95897000D01*
X144018000Y-96055750D01*
X143764000Y-96055750D01*
X143666217Y-95957967D01*
X143807311Y-95816873D01*
X144516000Y-95816873D01*
X144625016Y-95795188D01*
X144717436Y-95733436D01*
X144779188Y-95641016D01*
X144800873Y-95532000D01*
X144800873Y-94032000D01*
X144779188Y-93922984D01*
X144717436Y-93830564D01*
X144625016Y-93768812D01*
X144516000Y-93747127D01*
X144475200Y-93747127D01*
X144475200Y-93632036D01*
X144486645Y-93574500D01*
X144459724Y-93439161D01*
X144441304Y-93346557D01*
X144312185Y-93153315D01*
X144263403Y-93120720D01*
X143554200Y-92411518D01*
X143554200Y-90839116D01*
X144161601Y-91446518D01*
X144188510Y-91486790D01*
X144228782Y-91513699D01*
X144228784Y-91513701D01*
X144284380Y-91550849D01*
X144348077Y-91593410D01*
X144488792Y-91621400D01*
X144488795Y-91621400D01*
X144536299Y-91630849D01*
X144583803Y-91621400D01*
X144607127Y-91621400D01*
X144607127Y-91889000D01*
X144628812Y-91998016D01*
X144690564Y-92090436D01*
X144782984Y-92152188D01*
X144892000Y-92173873D01*
X146192000Y-92173873D01*
X146301016Y-92152188D01*
X146393436Y-92090436D01*
X146455188Y-91998016D01*
X146476873Y-91889000D01*
X146476873Y-91527739D01*
X146535695Y-91586561D01*
X146764417Y-91681300D01*
X147011983Y-91681300D01*
X147240705Y-91586561D01*
X147415761Y-91411505D01*
X147510500Y-91182783D01*
X147510500Y-90935217D01*
X147415761Y-90706495D01*
X147240705Y-90531439D01*
X147116600Y-90480033D01*
X147116600Y-88033850D01*
X147130434Y-88020016D01*
X147194301Y-88020016D01*
X147423023Y-87925277D01*
X147456548Y-87891752D01*
X148263147Y-88900000D01*
G36*
X140970000Y-103458000D02*
X140990000Y-103458000D01*
X140990000Y-103712000D01*
X140970000Y-103712000D01*
X140970000Y-103732000D01*
X140716000Y-103732000D01*
X140716000Y-103712000D01*
X140696000Y-103712000D01*
X140696000Y-103458000D01*
X140716000Y-103458000D01*
X140716000Y-103438000D01*
X140970000Y-103438000D01*
X140970000Y-103458000D01*
X140970000Y-103458000D01*
G37*
X140970000Y-103458000D02*
X140990000Y-103458000D01*
X140990000Y-103712000D01*
X140970000Y-103712000D01*
X140970000Y-103732000D01*
X140716000Y-103732000D01*
X140716000Y-103712000D01*
X140696000Y-103712000D01*
X140696000Y-103458000D01*
X140716000Y-103458000D01*
X140716000Y-103438000D01*
X140970000Y-103438000D01*
X140970000Y-103458000D01*
G36*
X142442439Y-89722695D02*
X142347700Y-89951417D01*
X142347700Y-90198983D01*
X142385800Y-90290966D01*
X142385800Y-90531000D01*
X141763750Y-90531000D01*
X141605000Y-90689750D01*
X141605000Y-91489000D01*
X141625000Y-91489000D01*
X141625000Y-91743000D01*
X141605000Y-91743000D01*
X141605000Y-92542250D01*
X141763750Y-92701000D01*
X142383804Y-92701000D01*
X142419697Y-92881443D01*
X142548816Y-93074685D01*
X142597597Y-93107279D01*
X143242182Y-93751865D01*
X143156984Y-93768812D01*
X143064564Y-93830564D01*
X143002812Y-93922984D01*
X142981127Y-94032000D01*
X142981127Y-94990689D01*
X142652758Y-95319059D01*
X142735300Y-95119783D01*
X142735300Y-94872217D01*
X142640561Y-94643495D01*
X142465505Y-94468439D01*
X142236783Y-94373700D01*
X141989217Y-94373700D01*
X141849000Y-94431779D01*
X141849000Y-93905691D01*
X141752327Y-93672302D01*
X141573699Y-93493673D01*
X141340310Y-93397000D01*
X140874750Y-93397000D01*
X140716000Y-93555750D01*
X140716000Y-94655000D01*
X140736000Y-94655000D01*
X140736000Y-94909000D01*
X140716000Y-94909000D01*
X140716000Y-94929000D01*
X140462000Y-94929000D01*
X140462000Y-94909000D01*
X140442000Y-94909000D01*
X140442000Y-94655000D01*
X140462000Y-94655000D01*
X140462000Y-93555750D01*
X140303250Y-93397000D01*
X139837690Y-93397000D01*
X139776200Y-93422470D01*
X139776200Y-92041035D01*
X139787645Y-91983499D01*
X139771384Y-91901750D01*
X139993000Y-91901750D01*
X139993000Y-92192309D01*
X140089673Y-92425698D01*
X140268301Y-92604327D01*
X140501690Y-92701000D01*
X141192250Y-92701000D01*
X141351000Y-92542250D01*
X141351000Y-91743000D01*
X140151750Y-91743000D01*
X139993000Y-91901750D01*
X139771384Y-91901750D01*
X139742304Y-91755557D01*
X139613185Y-91562315D01*
X139564407Y-91529723D01*
X139074375Y-91039691D01*
X139993000Y-91039691D01*
X139993000Y-91330250D01*
X140151750Y-91489000D01*
X141351000Y-91489000D01*
X141351000Y-90689750D01*
X141192250Y-90531000D01*
X140501690Y-90531000D01*
X140268301Y-90627673D01*
X140089673Y-90806302D01*
X139993000Y-91039691D01*
X139074375Y-91039691D01*
X138960303Y-90925620D01*
X139174105Y-90837061D01*
X139349161Y-90662005D01*
X139443900Y-90433283D01*
X139443900Y-90369416D01*
X140176916Y-89636400D01*
X142383296Y-89636400D01*
X142430800Y-89645849D01*
X142478304Y-89636400D01*
X142478308Y-89636400D01*
X142541255Y-89623879D01*
X142442439Y-89722695D01*
X142442439Y-89722695D01*
G37*
X142442439Y-89722695D02*
X142347700Y-89951417D01*
X142347700Y-90198983D01*
X142385800Y-90290966D01*
X142385800Y-90531000D01*
X141763750Y-90531000D01*
X141605000Y-90689750D01*
X141605000Y-91489000D01*
X141625000Y-91489000D01*
X141625000Y-91743000D01*
X141605000Y-91743000D01*
X141605000Y-92542250D01*
X141763750Y-92701000D01*
X142383804Y-92701000D01*
X142419697Y-92881443D01*
X142548816Y-93074685D01*
X142597597Y-93107279D01*
X143242182Y-93751865D01*
X143156984Y-93768812D01*
X143064564Y-93830564D01*
X143002812Y-93922984D01*
X142981127Y-94032000D01*
X142981127Y-94990689D01*
X142652758Y-95319059D01*
X142735300Y-95119783D01*
X142735300Y-94872217D01*
X142640561Y-94643495D01*
X142465505Y-94468439D01*
X142236783Y-94373700D01*
X141989217Y-94373700D01*
X141849000Y-94431779D01*
X141849000Y-93905691D01*
X141752327Y-93672302D01*
X141573699Y-93493673D01*
X141340310Y-93397000D01*
X140874750Y-93397000D01*
X140716000Y-93555750D01*
X140716000Y-94655000D01*
X140736000Y-94655000D01*
X140736000Y-94909000D01*
X140716000Y-94909000D01*
X140716000Y-94929000D01*
X140462000Y-94929000D01*
X140462000Y-94909000D01*
X140442000Y-94909000D01*
X140442000Y-94655000D01*
X140462000Y-94655000D01*
X140462000Y-93555750D01*
X140303250Y-93397000D01*
X139837690Y-93397000D01*
X139776200Y-93422470D01*
X139776200Y-92041035D01*
X139787645Y-91983499D01*
X139771384Y-91901750D01*
X139993000Y-91901750D01*
X139993000Y-92192309D01*
X140089673Y-92425698D01*
X140268301Y-92604327D01*
X140501690Y-92701000D01*
X141192250Y-92701000D01*
X141351000Y-92542250D01*
X141351000Y-91743000D01*
X140151750Y-91743000D01*
X139993000Y-91901750D01*
X139771384Y-91901750D01*
X139742304Y-91755557D01*
X139613185Y-91562315D01*
X139564407Y-91529723D01*
X139074375Y-91039691D01*
X139993000Y-91039691D01*
X139993000Y-91330250D01*
X140151750Y-91489000D01*
X141351000Y-91489000D01*
X141351000Y-90689750D01*
X141192250Y-90531000D01*
X140501690Y-90531000D01*
X140268301Y-90627673D01*
X140089673Y-90806302D01*
X139993000Y-91039691D01*
X139074375Y-91039691D01*
X138960303Y-90925620D01*
X139174105Y-90837061D01*
X139349161Y-90662005D01*
X139443900Y-90433283D01*
X139443900Y-90369416D01*
X140176916Y-89636400D01*
X142383296Y-89636400D01*
X142430800Y-89645849D01*
X142478304Y-89636400D01*
X142478308Y-89636400D01*
X142541255Y-89623879D01*
X142442439Y-89722695D01*
G36*
X140528907Y-83629070D02*
X140592773Y-83629070D01*
X140688073Y-83724370D01*
X140688076Y-83724372D01*
X140995601Y-84031898D01*
X140995601Y-84404127D01*
X140628000Y-84404127D01*
X140518984Y-84425812D01*
X140426564Y-84487564D01*
X140364812Y-84579984D01*
X140343127Y-84689000D01*
X140343127Y-85589000D01*
X140364812Y-85698016D01*
X140426564Y-85790436D01*
X140518984Y-85852188D01*
X140628000Y-85873873D01*
X141351201Y-85873873D01*
X141351201Y-85897188D01*
X141341750Y-85944700D01*
X141379190Y-86132923D01*
X141485810Y-86292490D01*
X141566770Y-86346586D01*
X142567004Y-87346821D01*
X142474495Y-87385139D01*
X142370127Y-87489507D01*
X142328000Y-87481127D01*
X140628000Y-87481127D01*
X140518984Y-87502812D01*
X140426564Y-87564564D01*
X140364812Y-87656984D01*
X140343127Y-87766000D01*
X140343127Y-88008200D01*
X138363334Y-88008200D01*
X138340208Y-88003600D01*
X138340204Y-88003600D01*
X138292700Y-87994151D01*
X138245196Y-88003600D01*
X138221873Y-88003600D01*
X138221873Y-87736000D01*
X138200188Y-87626984D01*
X138138436Y-87534564D01*
X138046016Y-87472812D01*
X137937000Y-87451127D01*
X136688710Y-87451127D01*
X136688710Y-87329784D01*
X136593971Y-87101062D01*
X136548810Y-87055901D01*
X136548810Y-87016138D01*
X136558259Y-86968634D01*
X136548810Y-86921130D01*
X136548810Y-86921126D01*
X136520820Y-86780411D01*
X136414200Y-86620844D01*
X136373925Y-86593933D01*
X136319834Y-86539842D01*
X136319834Y-86432983D01*
X136681368Y-86794517D01*
X136708277Y-86834790D01*
X136748549Y-86861699D01*
X136748551Y-86861701D01*
X136792673Y-86891182D01*
X136867844Y-86941410D01*
X137008559Y-86969400D01*
X137008563Y-86969400D01*
X137056066Y-86978849D01*
X137103569Y-86969400D01*
X137143334Y-86969400D01*
X137188495Y-87014561D01*
X137417217Y-87109300D01*
X137664783Y-87109300D01*
X137893505Y-87014561D01*
X138068561Y-86839505D01*
X138097780Y-86768963D01*
X138306217Y-86855300D01*
X138451634Y-86855300D01*
X138283439Y-87023495D01*
X138188700Y-87252217D01*
X138188700Y-87499783D01*
X138283439Y-87728505D01*
X138458495Y-87903561D01*
X138687217Y-87998300D01*
X138934783Y-87998300D01*
X139163505Y-87903561D01*
X139338561Y-87728505D01*
X139433300Y-87499783D01*
X139433300Y-87435916D01*
X139753515Y-87115701D01*
X139793790Y-87088790D01*
X139900410Y-86929223D01*
X139928400Y-86788508D01*
X139928400Y-86788504D01*
X139937849Y-86741000D01*
X139928400Y-86693496D01*
X139928400Y-85741666D01*
X139973561Y-85696505D01*
X140068300Y-85467783D01*
X140068300Y-85220217D01*
X139973561Y-84991495D01*
X139798505Y-84816439D01*
X139569783Y-84721700D01*
X139467716Y-84721700D01*
X140147797Y-84041620D01*
X140188069Y-84014711D01*
X140214978Y-83974439D01*
X140214980Y-83974437D01*
X140256699Y-83912000D01*
X140294689Y-83855144D01*
X140322679Y-83714429D01*
X140322679Y-83714425D01*
X140332128Y-83666922D01*
X140322679Y-83619419D01*
X140322679Y-83543648D01*
X140528907Y-83629070D01*
X140528907Y-83629070D01*
G37*
X140528907Y-83629070D02*
X140592773Y-83629070D01*
X140688073Y-83724370D01*
X140688076Y-83724372D01*
X140995601Y-84031898D01*
X140995601Y-84404127D01*
X140628000Y-84404127D01*
X140518984Y-84425812D01*
X140426564Y-84487564D01*
X140364812Y-84579984D01*
X140343127Y-84689000D01*
X140343127Y-85589000D01*
X140364812Y-85698016D01*
X140426564Y-85790436D01*
X140518984Y-85852188D01*
X140628000Y-85873873D01*
X141351201Y-85873873D01*
X141351201Y-85897188D01*
X141341750Y-85944700D01*
X141379190Y-86132923D01*
X141485810Y-86292490D01*
X141566770Y-86346586D01*
X142567004Y-87346821D01*
X142474495Y-87385139D01*
X142370127Y-87489507D01*
X142328000Y-87481127D01*
X140628000Y-87481127D01*
X140518984Y-87502812D01*
X140426564Y-87564564D01*
X140364812Y-87656984D01*
X140343127Y-87766000D01*
X140343127Y-88008200D01*
X138363334Y-88008200D01*
X138340208Y-88003600D01*
X138340204Y-88003600D01*
X138292700Y-87994151D01*
X138245196Y-88003600D01*
X138221873Y-88003600D01*
X138221873Y-87736000D01*
X138200188Y-87626984D01*
X138138436Y-87534564D01*
X138046016Y-87472812D01*
X137937000Y-87451127D01*
X136688710Y-87451127D01*
X136688710Y-87329784D01*
X136593971Y-87101062D01*
X136548810Y-87055901D01*
X136548810Y-87016138D01*
X136558259Y-86968634D01*
X136548810Y-86921130D01*
X136548810Y-86921126D01*
X136520820Y-86780411D01*
X136414200Y-86620844D01*
X136373925Y-86593933D01*
X136319834Y-86539842D01*
X136319834Y-86432983D01*
X136681368Y-86794517D01*
X136708277Y-86834790D01*
X136748549Y-86861699D01*
X136748551Y-86861701D01*
X136792673Y-86891182D01*
X136867844Y-86941410D01*
X137008559Y-86969400D01*
X137008563Y-86969400D01*
X137056066Y-86978849D01*
X137103569Y-86969400D01*
X137143334Y-86969400D01*
X137188495Y-87014561D01*
X137417217Y-87109300D01*
X137664783Y-87109300D01*
X137893505Y-87014561D01*
X138068561Y-86839505D01*
X138097780Y-86768963D01*
X138306217Y-86855300D01*
X138451634Y-86855300D01*
X138283439Y-87023495D01*
X138188700Y-87252217D01*
X138188700Y-87499783D01*
X138283439Y-87728505D01*
X138458495Y-87903561D01*
X138687217Y-87998300D01*
X138934783Y-87998300D01*
X139163505Y-87903561D01*
X139338561Y-87728505D01*
X139433300Y-87499783D01*
X139433300Y-87435916D01*
X139753515Y-87115701D01*
X139793790Y-87088790D01*
X139900410Y-86929223D01*
X139928400Y-86788508D01*
X139928400Y-86788504D01*
X139937849Y-86741000D01*
X139928400Y-86693496D01*
X139928400Y-85741666D01*
X139973561Y-85696505D01*
X140068300Y-85467783D01*
X140068300Y-85220217D01*
X139973561Y-84991495D01*
X139798505Y-84816439D01*
X139569783Y-84721700D01*
X139467716Y-84721700D01*
X140147797Y-84041620D01*
X140188069Y-84014711D01*
X140214978Y-83974439D01*
X140214980Y-83974437D01*
X140256699Y-83912000D01*
X140294689Y-83855144D01*
X140322679Y-83714429D01*
X140322679Y-83714425D01*
X140332128Y-83666922D01*
X140322679Y-83619419D01*
X140322679Y-83543648D01*
X140528907Y-83629070D01*
G36*
X152045601Y-57115096D02*
X152045600Y-79982107D01*
X151996586Y-80291571D01*
X151867162Y-80545580D01*
X151665578Y-80747163D01*
X151411571Y-80876586D01*
X151102107Y-80925600D01*
X149444096Y-80925600D01*
X149416699Y-80931050D01*
X149031108Y-80992121D01*
X148925654Y-81026385D01*
X148571619Y-81206775D01*
X148506445Y-81254127D01*
X148481915Y-81271949D01*
X148200949Y-81552914D01*
X148144917Y-81630036D01*
X148135775Y-81642619D01*
X147955385Y-81996654D01*
X147925380Y-82089000D01*
X147921121Y-82102108D01*
X147860046Y-82487724D01*
X147854601Y-82515096D01*
X147854600Y-84562203D01*
X147624431Y-84792373D01*
X147620784Y-84793977D01*
X147574694Y-84842110D01*
X147552721Y-84864083D01*
X147550568Y-84867305D01*
X147523274Y-84895809D01*
X147511778Y-84925358D01*
X147494163Y-84951721D01*
X147486464Y-84990426D01*
X147472156Y-85027204D01*
X147472843Y-85058904D01*
X147466658Y-85090000D01*
X147474357Y-85128704D01*
X147475212Y-85168159D01*
X147487977Y-85197181D01*
X147494163Y-85228279D01*
X147516090Y-85261095D01*
X147517649Y-85264640D01*
X147535449Y-85290069D01*
X147572492Y-85345508D01*
X147575807Y-85347723D01*
X148274482Y-86345831D01*
X147637957Y-87141487D01*
X147598079Y-87045211D01*
X147423023Y-86870155D01*
X147194301Y-86775416D01*
X146946735Y-86775416D01*
X146824300Y-86826130D01*
X146824300Y-86813427D01*
X146919600Y-86718127D01*
X146919602Y-86718124D01*
X147003015Y-86634711D01*
X147043290Y-86607800D01*
X147149910Y-86448233D01*
X147177900Y-86307518D01*
X147177900Y-86307514D01*
X147187349Y-86260010D01*
X147177900Y-86212506D01*
X147177900Y-81375616D01*
X149466117Y-79087400D01*
X149506389Y-79060491D01*
X149533298Y-79020219D01*
X149533300Y-79020217D01*
X149613009Y-78900924D01*
X149622920Y-78851099D01*
X149625352Y-78838873D01*
X149631600Y-78838873D01*
X149631600Y-78879895D01*
X149622151Y-78927400D01*
X149631600Y-78974904D01*
X149631600Y-78974907D01*
X149654295Y-79089000D01*
X149659590Y-79115622D01*
X149703705Y-79181644D01*
X149766210Y-79275190D01*
X149806485Y-79302101D01*
X150566000Y-80061616D01*
X150566000Y-80125483D01*
X150660739Y-80354205D01*
X150835795Y-80529261D01*
X151064517Y-80624000D01*
X151312083Y-80624000D01*
X151540805Y-80529261D01*
X151715861Y-80354205D01*
X151810600Y-80125483D01*
X151810600Y-79877917D01*
X151715861Y-79649195D01*
X151540805Y-79474139D01*
X151312083Y-79379400D01*
X151248216Y-79379400D01*
X150707689Y-78838873D01*
X150714000Y-78838873D01*
X150823016Y-78817188D01*
X150915436Y-78755436D01*
X150977188Y-78663016D01*
X150998873Y-78554000D01*
X150998873Y-77654000D01*
X150977188Y-77544984D01*
X150915436Y-77452564D01*
X150823016Y-77390812D01*
X150714000Y-77369127D01*
X149640999Y-77369127D01*
X149640999Y-75538873D01*
X150714000Y-75538873D01*
X150823016Y-75517188D01*
X150915436Y-75455436D01*
X150977188Y-75363016D01*
X150998873Y-75254000D01*
X150998873Y-74354000D01*
X150977188Y-74244984D01*
X150915436Y-74152564D01*
X150823016Y-74090812D01*
X150714000Y-74069127D01*
X149841367Y-74069127D01*
X151158218Y-72752277D01*
X151198490Y-72725368D01*
X151225399Y-72685096D01*
X151225401Y-72685094D01*
X151305110Y-72565801D01*
X151315230Y-72514922D01*
X151333100Y-72425086D01*
X151333100Y-72425083D01*
X151342549Y-72377579D01*
X151333100Y-72330075D01*
X151333100Y-63757504D01*
X151342549Y-63710000D01*
X151333100Y-63662496D01*
X151333100Y-63662492D01*
X151305110Y-63521777D01*
X151198490Y-63362210D01*
X151158215Y-63335299D01*
X150665401Y-62842485D01*
X150638490Y-62802210D01*
X150478923Y-62695590D01*
X150338208Y-62667600D01*
X150338204Y-62667600D01*
X150290700Y-62658151D01*
X150243196Y-62667600D01*
X150060180Y-62667600D01*
X149982963Y-62552037D01*
X149962934Y-62538654D01*
X150024090Y-62497790D01*
X150051001Y-62457515D01*
X150598215Y-61910301D01*
X150638490Y-61883390D01*
X150745110Y-61723823D01*
X150773100Y-61583108D01*
X150773100Y-61583104D01*
X150782549Y-61535600D01*
X150773100Y-61488096D01*
X150773100Y-57526604D01*
X150782549Y-57479100D01*
X150773100Y-57431596D01*
X150773100Y-57431592D01*
X150745110Y-57290877D01*
X150638490Y-57131310D01*
X150598215Y-57104399D01*
X150336301Y-56842485D01*
X150309390Y-56802210D01*
X150149823Y-56695590D01*
X150068008Y-56679316D01*
X149982963Y-56552037D01*
X149708615Y-56368723D01*
X149466684Y-56320600D01*
X147903316Y-56320600D01*
X147661385Y-56368723D01*
X147387037Y-56552037D01*
X147203723Y-56826385D01*
X147139352Y-57150000D01*
X147203723Y-57473615D01*
X147387037Y-57747963D01*
X147661385Y-57931277D01*
X147903316Y-57979400D01*
X149466684Y-57979400D01*
X149708615Y-57931277D01*
X149808300Y-57864669D01*
X149808300Y-58435331D01*
X149708615Y-58368723D01*
X149466684Y-58320600D01*
X147903316Y-58320600D01*
X147661385Y-58368723D01*
X147387037Y-58552037D01*
X147203723Y-58826385D01*
X147139352Y-59150000D01*
X147166467Y-59286317D01*
X144681484Y-61771300D01*
X136314720Y-61771300D01*
X136353000Y-61678883D01*
X136353000Y-61431317D01*
X136258261Y-61202595D01*
X136083205Y-61027539D01*
X135854483Y-60932800D01*
X135790616Y-60932800D01*
X135700301Y-60842485D01*
X135673390Y-60802210D01*
X135513823Y-60695590D01*
X135373108Y-60667600D01*
X135373104Y-60667600D01*
X135325600Y-60658151D01*
X135278096Y-60667600D01*
X134660180Y-60667600D01*
X134582963Y-60552037D01*
X134308615Y-60368723D01*
X134066684Y-60320600D01*
X132503316Y-60320600D01*
X132261385Y-60368723D01*
X131987037Y-60552037D01*
X131803723Y-60826385D01*
X131739352Y-61150000D01*
X131803723Y-61473615D01*
X131987037Y-61747963D01*
X132043337Y-61785582D01*
X132021677Y-61789890D01*
X131902384Y-61869599D01*
X131902382Y-61869601D01*
X131862110Y-61896510D01*
X131835201Y-61936783D01*
X131357683Y-62414301D01*
X131317411Y-62441210D01*
X131290502Y-62481482D01*
X131290499Y-62481485D01*
X131210790Y-62600778D01*
X131173351Y-62789000D01*
X131182801Y-62836509D01*
X131182800Y-65558896D01*
X131173351Y-65606400D01*
X131182800Y-65653904D01*
X131182800Y-65653907D01*
X131210790Y-65794622D01*
X131317410Y-65954190D01*
X131357685Y-65981101D01*
X131928399Y-66551815D01*
X131955310Y-66592090D01*
X131958742Y-66594383D01*
X131819883Y-66802200D01*
X131588666Y-66802200D01*
X131543505Y-66757039D01*
X131314783Y-66662300D01*
X131067217Y-66662300D01*
X130838495Y-66757039D01*
X130663439Y-66932095D01*
X130568700Y-67160817D01*
X130568700Y-67408383D01*
X130663439Y-67637105D01*
X130838495Y-67812161D01*
X131067217Y-67906900D01*
X131314783Y-67906900D01*
X131543505Y-67812161D01*
X131588666Y-67767000D01*
X132015528Y-67767000D01*
X132261385Y-67931277D01*
X132503316Y-67979400D01*
X134066684Y-67979400D01*
X134308615Y-67931277D01*
X134544001Y-67773997D01*
X134544001Y-68526003D01*
X134308615Y-68368723D01*
X134066684Y-68320600D01*
X132503316Y-68320600D01*
X132261385Y-68368723D01*
X131987037Y-68552037D01*
X131909820Y-68667600D01*
X131545666Y-68667600D01*
X131461905Y-68583839D01*
X131233183Y-68489100D01*
X130985617Y-68489100D01*
X130756895Y-68583839D01*
X130581839Y-68758895D01*
X130487100Y-68987617D01*
X130487100Y-69235183D01*
X130581839Y-69463905D01*
X130756895Y-69638961D01*
X130985617Y-69733700D01*
X131233183Y-69733700D01*
X131461905Y-69638961D01*
X131468466Y-69632400D01*
X131909820Y-69632400D01*
X131987037Y-69747963D01*
X132261385Y-69931277D01*
X132503316Y-69979400D01*
X134066684Y-69979400D01*
X134308615Y-69931277D01*
X134544000Y-69773997D01*
X134544000Y-70526003D01*
X134308615Y-70368723D01*
X134066684Y-70320600D01*
X132503316Y-70320600D01*
X132261385Y-70368723D01*
X131987037Y-70552037D01*
X131977841Y-70565800D01*
X131635035Y-70565800D01*
X131577499Y-70554355D01*
X131519963Y-70565800D01*
X131349557Y-70599696D01*
X131156315Y-70728815D01*
X131123722Y-70777594D01*
X130463200Y-71438117D01*
X130463200Y-59150000D01*
X131739352Y-59150000D01*
X131803723Y-59473615D01*
X131987037Y-59747963D01*
X132261385Y-59931277D01*
X132503316Y-59979400D01*
X134066684Y-59979400D01*
X134308615Y-59931277D01*
X134582963Y-59747963D01*
X134660180Y-59632400D01*
X134909734Y-59632400D01*
X134929295Y-59651961D01*
X135158017Y-59746700D01*
X135405583Y-59746700D01*
X135634305Y-59651961D01*
X135809361Y-59476905D01*
X135904100Y-59248183D01*
X135904100Y-59000617D01*
X135809361Y-58771895D01*
X135634305Y-58596839D01*
X135405583Y-58502100D01*
X135158017Y-58502100D01*
X134929295Y-58596839D01*
X134858534Y-58667600D01*
X134660180Y-58667600D01*
X134582963Y-58552037D01*
X134308615Y-58368723D01*
X134066684Y-58320600D01*
X132503316Y-58320600D01*
X132261385Y-58368723D01*
X131987037Y-58552037D01*
X131803723Y-58826385D01*
X131739352Y-59150000D01*
X130463200Y-59150000D01*
X130463200Y-59048316D01*
X131760312Y-57751204D01*
X131771812Y-57809016D01*
X131833564Y-57901436D01*
X131925984Y-57963188D01*
X132035000Y-57984873D01*
X134535000Y-57984873D01*
X134644016Y-57963188D01*
X134736436Y-57901436D01*
X134798188Y-57809016D01*
X134819873Y-57700000D01*
X134819873Y-57632400D01*
X134843196Y-57632400D01*
X134890700Y-57641849D01*
X134914457Y-57637123D01*
X134929295Y-57651961D01*
X135158017Y-57746700D01*
X135405583Y-57746700D01*
X135634305Y-57651961D01*
X135809361Y-57476905D01*
X135904100Y-57248183D01*
X135904100Y-57000617D01*
X135809361Y-56771895D01*
X135634305Y-56596839D01*
X135405583Y-56502100D01*
X135158017Y-56502100D01*
X134929295Y-56596839D01*
X134887942Y-56638192D01*
X134868796Y-56642000D01*
X134868792Y-56642000D01*
X134819873Y-56651731D01*
X134819873Y-56600000D01*
X134798188Y-56490984D01*
X134736436Y-56398564D01*
X134644016Y-56336812D01*
X134535000Y-56315127D01*
X132035000Y-56315127D01*
X131925984Y-56336812D01*
X131833564Y-56398564D01*
X131771812Y-56490984D01*
X131750127Y-56600000D01*
X131750127Y-56667600D01*
X131726804Y-56667600D01*
X131679300Y-56658151D01*
X131631796Y-56667600D01*
X131631792Y-56667600D01*
X131491077Y-56695590D01*
X131331510Y-56802210D01*
X131304599Y-56842485D01*
X129894400Y-58252684D01*
X129894400Y-55118000D01*
X152045601Y-55118000D01*
X152045601Y-57115096D01*
X152045601Y-57115096D01*
G37*
X152045601Y-57115096D02*
X152045600Y-79982107D01*
X151996586Y-80291571D01*
X151867162Y-80545580D01*
X151665578Y-80747163D01*
X151411571Y-80876586D01*
X151102107Y-80925600D01*
X149444096Y-80925600D01*
X149416699Y-80931050D01*
X149031108Y-80992121D01*
X148925654Y-81026385D01*
X148571619Y-81206775D01*
X148506445Y-81254127D01*
X148481915Y-81271949D01*
X148200949Y-81552914D01*
X148144917Y-81630036D01*
X148135775Y-81642619D01*
X147955385Y-81996654D01*
X147925380Y-82089000D01*
X147921121Y-82102108D01*
X147860046Y-82487724D01*
X147854601Y-82515096D01*
X147854600Y-84562203D01*
X147624431Y-84792373D01*
X147620784Y-84793977D01*
X147574694Y-84842110D01*
X147552721Y-84864083D01*
X147550568Y-84867305D01*
X147523274Y-84895809D01*
X147511778Y-84925358D01*
X147494163Y-84951721D01*
X147486464Y-84990426D01*
X147472156Y-85027204D01*
X147472843Y-85058904D01*
X147466658Y-85090000D01*
X147474357Y-85128704D01*
X147475212Y-85168159D01*
X147487977Y-85197181D01*
X147494163Y-85228279D01*
X147516090Y-85261095D01*
X147517649Y-85264640D01*
X147535449Y-85290069D01*
X147572492Y-85345508D01*
X147575807Y-85347723D01*
X148274482Y-86345831D01*
X147637957Y-87141487D01*
X147598079Y-87045211D01*
X147423023Y-86870155D01*
X147194301Y-86775416D01*
X146946735Y-86775416D01*
X146824300Y-86826130D01*
X146824300Y-86813427D01*
X146919600Y-86718127D01*
X146919602Y-86718124D01*
X147003015Y-86634711D01*
X147043290Y-86607800D01*
X147149910Y-86448233D01*
X147177900Y-86307518D01*
X147177900Y-86307514D01*
X147187349Y-86260010D01*
X147177900Y-86212506D01*
X147177900Y-81375616D01*
X149466117Y-79087400D01*
X149506389Y-79060491D01*
X149533298Y-79020219D01*
X149533300Y-79020217D01*
X149613009Y-78900924D01*
X149622920Y-78851099D01*
X149625352Y-78838873D01*
X149631600Y-78838873D01*
X149631600Y-78879895D01*
X149622151Y-78927400D01*
X149631600Y-78974904D01*
X149631600Y-78974907D01*
X149654295Y-79089000D01*
X149659590Y-79115622D01*
X149703705Y-79181644D01*
X149766210Y-79275190D01*
X149806485Y-79302101D01*
X150566000Y-80061616D01*
X150566000Y-80125483D01*
X150660739Y-80354205D01*
X150835795Y-80529261D01*
X151064517Y-80624000D01*
X151312083Y-80624000D01*
X151540805Y-80529261D01*
X151715861Y-80354205D01*
X151810600Y-80125483D01*
X151810600Y-79877917D01*
X151715861Y-79649195D01*
X151540805Y-79474139D01*
X151312083Y-79379400D01*
X151248216Y-79379400D01*
X150707689Y-78838873D01*
X150714000Y-78838873D01*
X150823016Y-78817188D01*
X150915436Y-78755436D01*
X150977188Y-78663016D01*
X150998873Y-78554000D01*
X150998873Y-77654000D01*
X150977188Y-77544984D01*
X150915436Y-77452564D01*
X150823016Y-77390812D01*
X150714000Y-77369127D01*
X149640999Y-77369127D01*
X149640999Y-75538873D01*
X150714000Y-75538873D01*
X150823016Y-75517188D01*
X150915436Y-75455436D01*
X150977188Y-75363016D01*
X150998873Y-75254000D01*
X150998873Y-74354000D01*
X150977188Y-74244984D01*
X150915436Y-74152564D01*
X150823016Y-74090812D01*
X150714000Y-74069127D01*
X149841367Y-74069127D01*
X151158218Y-72752277D01*
X151198490Y-72725368D01*
X151225399Y-72685096D01*
X151225401Y-72685094D01*
X151305110Y-72565801D01*
X151315230Y-72514922D01*
X151333100Y-72425086D01*
X151333100Y-72425083D01*
X151342549Y-72377579D01*
X151333100Y-72330075D01*
X151333100Y-63757504D01*
X151342549Y-63710000D01*
X151333100Y-63662496D01*
X151333100Y-63662492D01*
X151305110Y-63521777D01*
X151198490Y-63362210D01*
X151158215Y-63335299D01*
X150665401Y-62842485D01*
X150638490Y-62802210D01*
X150478923Y-62695590D01*
X150338208Y-62667600D01*
X150338204Y-62667600D01*
X150290700Y-62658151D01*
X150243196Y-62667600D01*
X150060180Y-62667600D01*
X149982963Y-62552037D01*
X149962934Y-62538654D01*
X150024090Y-62497790D01*
X150051001Y-62457515D01*
X150598215Y-61910301D01*
X150638490Y-61883390D01*
X150745110Y-61723823D01*
X150773100Y-61583108D01*
X150773100Y-61583104D01*
X150782549Y-61535600D01*
X150773100Y-61488096D01*
X150773100Y-57526604D01*
X150782549Y-57479100D01*
X150773100Y-57431596D01*
X150773100Y-57431592D01*
X150745110Y-57290877D01*
X150638490Y-57131310D01*
X150598215Y-57104399D01*
X150336301Y-56842485D01*
X150309390Y-56802210D01*
X150149823Y-56695590D01*
X150068008Y-56679316D01*
X149982963Y-56552037D01*
X149708615Y-56368723D01*
X149466684Y-56320600D01*
X147903316Y-56320600D01*
X147661385Y-56368723D01*
X147387037Y-56552037D01*
X147203723Y-56826385D01*
X147139352Y-57150000D01*
X147203723Y-57473615D01*
X147387037Y-57747963D01*
X147661385Y-57931277D01*
X147903316Y-57979400D01*
X149466684Y-57979400D01*
X149708615Y-57931277D01*
X149808300Y-57864669D01*
X149808300Y-58435331D01*
X149708615Y-58368723D01*
X149466684Y-58320600D01*
X147903316Y-58320600D01*
X147661385Y-58368723D01*
X147387037Y-58552037D01*
X147203723Y-58826385D01*
X147139352Y-59150000D01*
X147166467Y-59286317D01*
X144681484Y-61771300D01*
X136314720Y-61771300D01*
X136353000Y-61678883D01*
X136353000Y-61431317D01*
X136258261Y-61202595D01*
X136083205Y-61027539D01*
X135854483Y-60932800D01*
X135790616Y-60932800D01*
X135700301Y-60842485D01*
X135673390Y-60802210D01*
X135513823Y-60695590D01*
X135373108Y-60667600D01*
X135373104Y-60667600D01*
X135325600Y-60658151D01*
X135278096Y-60667600D01*
X134660180Y-60667600D01*
X134582963Y-60552037D01*
X134308615Y-60368723D01*
X134066684Y-60320600D01*
X132503316Y-60320600D01*
X132261385Y-60368723D01*
X131987037Y-60552037D01*
X131803723Y-60826385D01*
X131739352Y-61150000D01*
X131803723Y-61473615D01*
X131987037Y-61747963D01*
X132043337Y-61785582D01*
X132021677Y-61789890D01*
X131902384Y-61869599D01*
X131902382Y-61869601D01*
X131862110Y-61896510D01*
X131835201Y-61936783D01*
X131357683Y-62414301D01*
X131317411Y-62441210D01*
X131290502Y-62481482D01*
X131290499Y-62481485D01*
X131210790Y-62600778D01*
X131173351Y-62789000D01*
X131182801Y-62836509D01*
X131182800Y-65558896D01*
X131173351Y-65606400D01*
X131182800Y-65653904D01*
X131182800Y-65653907D01*
X131210790Y-65794622D01*
X131317410Y-65954190D01*
X131357685Y-65981101D01*
X131928399Y-66551815D01*
X131955310Y-66592090D01*
X131958742Y-66594383D01*
X131819883Y-66802200D01*
X131588666Y-66802200D01*
X131543505Y-66757039D01*
X131314783Y-66662300D01*
X131067217Y-66662300D01*
X130838495Y-66757039D01*
X130663439Y-66932095D01*
X130568700Y-67160817D01*
X130568700Y-67408383D01*
X130663439Y-67637105D01*
X130838495Y-67812161D01*
X131067217Y-67906900D01*
X131314783Y-67906900D01*
X131543505Y-67812161D01*
X131588666Y-67767000D01*
X132015528Y-67767000D01*
X132261385Y-67931277D01*
X132503316Y-67979400D01*
X134066684Y-67979400D01*
X134308615Y-67931277D01*
X134544001Y-67773997D01*
X134544001Y-68526003D01*
X134308615Y-68368723D01*
X134066684Y-68320600D01*
X132503316Y-68320600D01*
X132261385Y-68368723D01*
X131987037Y-68552037D01*
X131909820Y-68667600D01*
X131545666Y-68667600D01*
X131461905Y-68583839D01*
X131233183Y-68489100D01*
X130985617Y-68489100D01*
X130756895Y-68583839D01*
X130581839Y-68758895D01*
X130487100Y-68987617D01*
X130487100Y-69235183D01*
X130581839Y-69463905D01*
X130756895Y-69638961D01*
X130985617Y-69733700D01*
X131233183Y-69733700D01*
X131461905Y-69638961D01*
X131468466Y-69632400D01*
X131909820Y-69632400D01*
X131987037Y-69747963D01*
X132261385Y-69931277D01*
X132503316Y-69979400D01*
X134066684Y-69979400D01*
X134308615Y-69931277D01*
X134544000Y-69773997D01*
X134544000Y-70526003D01*
X134308615Y-70368723D01*
X134066684Y-70320600D01*
X132503316Y-70320600D01*
X132261385Y-70368723D01*
X131987037Y-70552037D01*
X131977841Y-70565800D01*
X131635035Y-70565800D01*
X131577499Y-70554355D01*
X131519963Y-70565800D01*
X131349557Y-70599696D01*
X131156315Y-70728815D01*
X131123722Y-70777594D01*
X130463200Y-71438117D01*
X130463200Y-59150000D01*
X131739352Y-59150000D01*
X131803723Y-59473615D01*
X131987037Y-59747963D01*
X132261385Y-59931277D01*
X132503316Y-59979400D01*
X134066684Y-59979400D01*
X134308615Y-59931277D01*
X134582963Y-59747963D01*
X134660180Y-59632400D01*
X134909734Y-59632400D01*
X134929295Y-59651961D01*
X135158017Y-59746700D01*
X135405583Y-59746700D01*
X135634305Y-59651961D01*
X135809361Y-59476905D01*
X135904100Y-59248183D01*
X135904100Y-59000617D01*
X135809361Y-58771895D01*
X135634305Y-58596839D01*
X135405583Y-58502100D01*
X135158017Y-58502100D01*
X134929295Y-58596839D01*
X134858534Y-58667600D01*
X134660180Y-58667600D01*
X134582963Y-58552037D01*
X134308615Y-58368723D01*
X134066684Y-58320600D01*
X132503316Y-58320600D01*
X132261385Y-58368723D01*
X131987037Y-58552037D01*
X131803723Y-58826385D01*
X131739352Y-59150000D01*
X130463200Y-59150000D01*
X130463200Y-59048316D01*
X131760312Y-57751204D01*
X131771812Y-57809016D01*
X131833564Y-57901436D01*
X131925984Y-57963188D01*
X132035000Y-57984873D01*
X134535000Y-57984873D01*
X134644016Y-57963188D01*
X134736436Y-57901436D01*
X134798188Y-57809016D01*
X134819873Y-57700000D01*
X134819873Y-57632400D01*
X134843196Y-57632400D01*
X134890700Y-57641849D01*
X134914457Y-57637123D01*
X134929295Y-57651961D01*
X135158017Y-57746700D01*
X135405583Y-57746700D01*
X135634305Y-57651961D01*
X135809361Y-57476905D01*
X135904100Y-57248183D01*
X135904100Y-57000617D01*
X135809361Y-56771895D01*
X135634305Y-56596839D01*
X135405583Y-56502100D01*
X135158017Y-56502100D01*
X134929295Y-56596839D01*
X134887942Y-56638192D01*
X134868796Y-56642000D01*
X134868792Y-56642000D01*
X134819873Y-56651731D01*
X134819873Y-56600000D01*
X134798188Y-56490984D01*
X134736436Y-56398564D01*
X134644016Y-56336812D01*
X134535000Y-56315127D01*
X132035000Y-56315127D01*
X131925984Y-56336812D01*
X131833564Y-56398564D01*
X131771812Y-56490984D01*
X131750127Y-56600000D01*
X131750127Y-56667600D01*
X131726804Y-56667600D01*
X131679300Y-56658151D01*
X131631796Y-56667600D01*
X131631792Y-56667600D01*
X131491077Y-56695590D01*
X131331510Y-56802210D01*
X131304599Y-56842485D01*
X129894400Y-58252684D01*
X129894400Y-55118000D01*
X152045601Y-55118000D01*
X152045601Y-57115096D01*
G36*
X142813201Y-80861317D02*
X142813201Y-80876176D01*
X142687699Y-80750673D01*
X142454310Y-80654000D01*
X141763750Y-80654000D01*
X141605000Y-80812750D01*
X141605000Y-81612000D01*
X141625000Y-81612000D01*
X141625000Y-81866000D01*
X141605000Y-81866000D01*
X141605000Y-82665250D01*
X141763750Y-82824000D01*
X142454310Y-82824000D01*
X142687699Y-82727327D01*
X142813201Y-82601825D01*
X142813200Y-86228584D01*
X142436839Y-85852223D01*
X142437016Y-85852188D01*
X142529436Y-85790436D01*
X142591188Y-85698016D01*
X142612873Y-85589000D01*
X142612873Y-84689000D01*
X142591188Y-84579984D01*
X142529436Y-84487564D01*
X142437016Y-84425812D01*
X142328000Y-84404127D01*
X141960400Y-84404127D01*
X141960400Y-83879583D01*
X141969849Y-83832079D01*
X141960400Y-83784575D01*
X141960400Y-83784572D01*
X141932410Y-83643857D01*
X141872045Y-83553515D01*
X141852701Y-83524564D01*
X141852699Y-83524562D01*
X141825790Y-83484290D01*
X141785517Y-83457381D01*
X141370292Y-83042156D01*
X141370290Y-83042153D01*
X141274990Y-82946853D01*
X141274990Y-82882987D01*
X141233479Y-82782771D01*
X141351000Y-82665250D01*
X141351000Y-81866000D01*
X141331000Y-81866000D01*
X141331000Y-81612000D01*
X141351000Y-81612000D01*
X141351000Y-80812750D01*
X141192250Y-80654000D01*
X140501690Y-80654000D01*
X140322679Y-80728149D01*
X140322679Y-78370795D01*
X142813201Y-80861317D01*
X142813201Y-80861317D01*
G37*
X142813201Y-80861317D02*
X142813201Y-80876176D01*
X142687699Y-80750673D01*
X142454310Y-80654000D01*
X141763750Y-80654000D01*
X141605000Y-80812750D01*
X141605000Y-81612000D01*
X141625000Y-81612000D01*
X141625000Y-81866000D01*
X141605000Y-81866000D01*
X141605000Y-82665250D01*
X141763750Y-82824000D01*
X142454310Y-82824000D01*
X142687699Y-82727327D01*
X142813201Y-82601825D01*
X142813200Y-86228584D01*
X142436839Y-85852223D01*
X142437016Y-85852188D01*
X142529436Y-85790436D01*
X142591188Y-85698016D01*
X142612873Y-85589000D01*
X142612873Y-84689000D01*
X142591188Y-84579984D01*
X142529436Y-84487564D01*
X142437016Y-84425812D01*
X142328000Y-84404127D01*
X141960400Y-84404127D01*
X141960400Y-83879583D01*
X141969849Y-83832079D01*
X141960400Y-83784575D01*
X141960400Y-83784572D01*
X141932410Y-83643857D01*
X141872045Y-83553515D01*
X141852701Y-83524564D01*
X141852699Y-83524562D01*
X141825790Y-83484290D01*
X141785517Y-83457381D01*
X141370292Y-83042156D01*
X141370290Y-83042153D01*
X141274990Y-82946853D01*
X141274990Y-82882987D01*
X141233479Y-82782771D01*
X141351000Y-82665250D01*
X141351000Y-81866000D01*
X141331000Y-81866000D01*
X141331000Y-81612000D01*
X141351000Y-81612000D01*
X141351000Y-80812750D01*
X141192250Y-80654000D01*
X140501690Y-80654000D01*
X140322679Y-80728149D01*
X140322679Y-78370795D01*
X142813201Y-80861317D01*
G36*
X137346727Y-75403000D02*
X137368412Y-75512016D01*
X137430164Y-75604436D01*
X137522584Y-75666188D01*
X137631600Y-75687873D01*
X137947401Y-75687873D01*
X137947401Y-75955059D01*
X137935955Y-76012600D01*
X137976651Y-76217188D01*
X137981297Y-76240543D01*
X138110416Y-76433785D01*
X138159197Y-76466379D01*
X138369866Y-76677048D01*
X138402462Y-76725832D01*
X138595704Y-76854951D01*
X138766110Y-76888847D01*
X138766111Y-76888847D01*
X138823647Y-76900292D01*
X138874783Y-76890120D01*
X138963691Y-76926947D01*
X139211257Y-76926947D01*
X139357880Y-76866214D01*
X139357880Y-77220127D01*
X137631600Y-77220127D01*
X137522584Y-77241812D01*
X137430164Y-77303564D01*
X137368412Y-77395984D01*
X137346727Y-77505000D01*
X137346727Y-77942289D01*
X137156992Y-77863699D01*
X136909426Y-77863699D01*
X136680704Y-77958438D01*
X136505648Y-78133494D01*
X136410909Y-78362216D01*
X136410909Y-78609782D01*
X136505648Y-78838504D01*
X136550609Y-78883465D01*
X136550609Y-78923403D01*
X136541155Y-78970932D01*
X136550609Y-79018460D01*
X136578610Y-79159232D01*
X136685274Y-79318867D01*
X136725573Y-79345794D01*
X136935415Y-79555636D01*
X136962342Y-79595935D01*
X137121976Y-79702599D01*
X137262748Y-79730600D01*
X137310276Y-79740054D01*
X137357804Y-79730600D01*
X137849102Y-79730600D01*
X137937002Y-79818501D01*
X137937002Y-80577000D01*
X137699750Y-80577000D01*
X137541000Y-80735750D01*
X137541000Y-81835000D01*
X137561000Y-81835000D01*
X137561000Y-82089000D01*
X137541000Y-82089000D01*
X137541000Y-82109000D01*
X137287000Y-82109000D01*
X137287000Y-82089000D01*
X137267000Y-82089000D01*
X137267000Y-81835000D01*
X137287000Y-81835000D01*
X137287000Y-80735750D01*
X137128250Y-80577000D01*
X136637690Y-80577000D01*
X136541944Y-80616660D01*
X136563100Y-80565583D01*
X136563100Y-80318017D01*
X136468361Y-80089295D01*
X136293305Y-79914239D01*
X136064583Y-79819500D01*
X136000999Y-79819500D01*
X135255002Y-79073503D01*
X135255002Y-78930252D01*
X135413750Y-79089000D01*
X135879310Y-79089000D01*
X136112699Y-78992327D01*
X136291327Y-78813698D01*
X136388000Y-78580309D01*
X136388000Y-77989750D01*
X136229250Y-77831000D01*
X135255000Y-77831000D01*
X135255000Y-77851000D01*
X135001000Y-77851000D01*
X135001000Y-77831000D01*
X134981000Y-77831000D01*
X134981000Y-77577000D01*
X135001000Y-77577000D01*
X135001000Y-76477750D01*
X135255000Y-76477750D01*
X135255000Y-77577000D01*
X136229250Y-77577000D01*
X136388000Y-77418250D01*
X136388000Y-76827691D01*
X136291327Y-76594302D01*
X136112699Y-76415673D01*
X135879310Y-76319000D01*
X135413750Y-76319000D01*
X135255000Y-76477750D01*
X135001000Y-76477750D01*
X134842250Y-76319000D01*
X134376690Y-76319000D01*
X134143301Y-76415673D01*
X133964673Y-76594302D01*
X133868000Y-76827691D01*
X133868000Y-77418250D01*
X134026748Y-77576998D01*
X133868000Y-77576998D01*
X133868000Y-77686502D01*
X133030119Y-76848621D01*
X133029299Y-76844500D01*
X132922635Y-76684865D01*
X132763001Y-76578201D01*
X132574700Y-76540746D01*
X132526166Y-76550400D01*
X131477417Y-76550400D01*
X131431817Y-76504800D01*
X133271364Y-76504800D01*
X133328900Y-76516245D01*
X133386436Y-76504800D01*
X133386437Y-76504800D01*
X133556843Y-76470904D01*
X133750085Y-76341785D01*
X133782681Y-76293001D01*
X134218127Y-75857556D01*
X134218127Y-75954000D01*
X134239812Y-76063016D01*
X134301564Y-76155436D01*
X134393984Y-76217188D01*
X134503000Y-76238873D01*
X135753000Y-76238873D01*
X135862016Y-76217188D01*
X135954436Y-76155436D01*
X136016188Y-76063016D01*
X136037873Y-75954000D01*
X136037873Y-75796070D01*
X136077436Y-75788200D01*
X136077437Y-75788200D01*
X136247843Y-75754304D01*
X136441085Y-75625185D01*
X136473681Y-75576401D01*
X136662883Y-75387200D01*
X137346727Y-75387200D01*
X137346727Y-75403000D01*
X137346727Y-75403000D01*
G37*
X137346727Y-75403000D02*
X137368412Y-75512016D01*
X137430164Y-75604436D01*
X137522584Y-75666188D01*
X137631600Y-75687873D01*
X137947401Y-75687873D01*
X137947401Y-75955059D01*
X137935955Y-76012600D01*
X137976651Y-76217188D01*
X137981297Y-76240543D01*
X138110416Y-76433785D01*
X138159197Y-76466379D01*
X138369866Y-76677048D01*
X138402462Y-76725832D01*
X138595704Y-76854951D01*
X138766110Y-76888847D01*
X138766111Y-76888847D01*
X138823647Y-76900292D01*
X138874783Y-76890120D01*
X138963691Y-76926947D01*
X139211257Y-76926947D01*
X139357880Y-76866214D01*
X139357880Y-77220127D01*
X137631600Y-77220127D01*
X137522584Y-77241812D01*
X137430164Y-77303564D01*
X137368412Y-77395984D01*
X137346727Y-77505000D01*
X137346727Y-77942289D01*
X137156992Y-77863699D01*
X136909426Y-77863699D01*
X136680704Y-77958438D01*
X136505648Y-78133494D01*
X136410909Y-78362216D01*
X136410909Y-78609782D01*
X136505648Y-78838504D01*
X136550609Y-78883465D01*
X136550609Y-78923403D01*
X136541155Y-78970932D01*
X136550609Y-79018460D01*
X136578610Y-79159232D01*
X136685274Y-79318867D01*
X136725573Y-79345794D01*
X136935415Y-79555636D01*
X136962342Y-79595935D01*
X137121976Y-79702599D01*
X137262748Y-79730600D01*
X137310276Y-79740054D01*
X137357804Y-79730600D01*
X137849102Y-79730600D01*
X137937002Y-79818501D01*
X137937002Y-80577000D01*
X137699750Y-80577000D01*
X137541000Y-80735750D01*
X137541000Y-81835000D01*
X137561000Y-81835000D01*
X137561000Y-82089000D01*
X137541000Y-82089000D01*
X137541000Y-82109000D01*
X137287000Y-82109000D01*
X137287000Y-82089000D01*
X137267000Y-82089000D01*
X137267000Y-81835000D01*
X137287000Y-81835000D01*
X137287000Y-80735750D01*
X137128250Y-80577000D01*
X136637690Y-80577000D01*
X136541944Y-80616660D01*
X136563100Y-80565583D01*
X136563100Y-80318017D01*
X136468361Y-80089295D01*
X136293305Y-79914239D01*
X136064583Y-79819500D01*
X136000999Y-79819500D01*
X135255002Y-79073503D01*
X135255002Y-78930252D01*
X135413750Y-79089000D01*
X135879310Y-79089000D01*
X136112699Y-78992327D01*
X136291327Y-78813698D01*
X136388000Y-78580309D01*
X136388000Y-77989750D01*
X136229250Y-77831000D01*
X135255000Y-77831000D01*
X135255000Y-77851000D01*
X135001000Y-77851000D01*
X135001000Y-77831000D01*
X134981000Y-77831000D01*
X134981000Y-77577000D01*
X135001000Y-77577000D01*
X135001000Y-76477750D01*
X135255000Y-76477750D01*
X135255000Y-77577000D01*
X136229250Y-77577000D01*
X136388000Y-77418250D01*
X136388000Y-76827691D01*
X136291327Y-76594302D01*
X136112699Y-76415673D01*
X135879310Y-76319000D01*
X135413750Y-76319000D01*
X135255000Y-76477750D01*
X135001000Y-76477750D01*
X134842250Y-76319000D01*
X134376690Y-76319000D01*
X134143301Y-76415673D01*
X133964673Y-76594302D01*
X133868000Y-76827691D01*
X133868000Y-77418250D01*
X134026748Y-77576998D01*
X133868000Y-77576998D01*
X133868000Y-77686502D01*
X133030119Y-76848621D01*
X133029299Y-76844500D01*
X132922635Y-76684865D01*
X132763001Y-76578201D01*
X132574700Y-76540746D01*
X132526166Y-76550400D01*
X131477417Y-76550400D01*
X131431817Y-76504800D01*
X133271364Y-76504800D01*
X133328900Y-76516245D01*
X133386436Y-76504800D01*
X133386437Y-76504800D01*
X133556843Y-76470904D01*
X133750085Y-76341785D01*
X133782681Y-76293001D01*
X134218127Y-75857556D01*
X134218127Y-75954000D01*
X134239812Y-76063016D01*
X134301564Y-76155436D01*
X134393984Y-76217188D01*
X134503000Y-76238873D01*
X135753000Y-76238873D01*
X135862016Y-76217188D01*
X135954436Y-76155436D01*
X136016188Y-76063016D01*
X136037873Y-75954000D01*
X136037873Y-75796070D01*
X136077436Y-75788200D01*
X136077437Y-75788200D01*
X136247843Y-75754304D01*
X136441085Y-75625185D01*
X136473681Y-75576401D01*
X136662883Y-75387200D01*
X137346727Y-75387200D01*
X137346727Y-75403000D01*
G36*
X130902901Y-77340318D02*
X130929810Y-77380590D01*
X130967546Y-77405804D01*
X130897564Y-77452564D01*
X130835812Y-77544984D01*
X130814127Y-77654000D01*
X130814127Y-78554000D01*
X130835812Y-78663016D01*
X130897564Y-78755436D01*
X130989984Y-78817188D01*
X131099000Y-78838873D01*
X131439018Y-78838873D01*
X131295695Y-78898239D01*
X131120639Y-79073295D01*
X131025900Y-79302017D01*
X131025900Y-79549583D01*
X131120639Y-79778305D01*
X131295695Y-79953361D01*
X131524417Y-80048100D01*
X131588283Y-80048100D01*
X131683583Y-80143400D01*
X131683586Y-80143402D01*
X132534429Y-80994245D01*
X132527892Y-80992121D01*
X132142301Y-80931050D01*
X132114904Y-80925600D01*
X130837893Y-80925600D01*
X130528429Y-80876586D01*
X130274420Y-80747162D01*
X130072837Y-80545578D01*
X129943414Y-80291571D01*
X129894400Y-79982107D01*
X129894400Y-76331816D01*
X130902901Y-77340318D01*
X130902901Y-77340318D01*
G37*
X130902901Y-77340318D02*
X130929810Y-77380590D01*
X130967546Y-77405804D01*
X130897564Y-77452564D01*
X130835812Y-77544984D01*
X130814127Y-77654000D01*
X130814127Y-78554000D01*
X130835812Y-78663016D01*
X130897564Y-78755436D01*
X130989984Y-78817188D01*
X131099000Y-78838873D01*
X131439018Y-78838873D01*
X131295695Y-78898239D01*
X131120639Y-79073295D01*
X131025900Y-79302017D01*
X131025900Y-79549583D01*
X131120639Y-79778305D01*
X131295695Y-79953361D01*
X131524417Y-80048100D01*
X131588283Y-80048100D01*
X131683583Y-80143400D01*
X131683586Y-80143402D01*
X132534429Y-80994245D01*
X132527892Y-80992121D01*
X132142301Y-80931050D01*
X132114904Y-80925600D01*
X130837893Y-80925600D01*
X130528429Y-80876586D01*
X130274420Y-80747162D01*
X130072837Y-80545578D01*
X129943414Y-80291571D01*
X129894400Y-79982107D01*
X129894400Y-76331816D01*
X130902901Y-77340318D01*
G36*
X142223527Y-75403000D02*
X142245212Y-75512016D01*
X142306964Y-75604436D01*
X142399384Y-75666188D01*
X142508400Y-75687873D01*
X144308400Y-75687873D01*
X144417416Y-75666188D01*
X144509836Y-75604436D01*
X144571588Y-75512016D01*
X144593273Y-75403000D01*
X144593273Y-75285400D01*
X146004127Y-75285400D01*
X146004127Y-75727000D01*
X146025812Y-75836016D01*
X146031329Y-75844273D01*
X145905410Y-75928410D01*
X145878499Y-75968685D01*
X145031283Y-76815901D01*
X144991011Y-76842810D01*
X144964102Y-76883082D01*
X144964099Y-76883085D01*
X144884390Y-77002378D01*
X144852966Y-77160362D01*
X144846727Y-77145301D01*
X144668098Y-76966673D01*
X144434709Y-76870000D01*
X143694150Y-76870000D01*
X143535400Y-77028750D01*
X143535400Y-77978000D01*
X143555400Y-77978000D01*
X143555400Y-78232000D01*
X143535400Y-78232000D01*
X143535400Y-78252000D01*
X143281400Y-78252000D01*
X143281400Y-78232000D01*
X142032150Y-78232000D01*
X141873400Y-78390750D01*
X141873400Y-78557084D01*
X140881097Y-77564781D01*
X140881097Y-77378690D01*
X141873400Y-77378690D01*
X141873400Y-77819250D01*
X142032150Y-77978000D01*
X143281400Y-77978000D01*
X143281400Y-77028750D01*
X143122650Y-76870000D01*
X142382091Y-76870000D01*
X142148702Y-76966673D01*
X141970073Y-77145301D01*
X141873400Y-77378690D01*
X140881097Y-77378690D01*
X140881097Y-76455690D01*
X140890546Y-76408187D01*
X140881097Y-76360684D01*
X140881097Y-76360680D01*
X140853107Y-76219965D01*
X140848885Y-76213647D01*
X140919939Y-76243078D01*
X141167505Y-76243078D01*
X141396227Y-76148339D01*
X141571283Y-75973283D01*
X141666022Y-75744561D01*
X141666022Y-75680695D01*
X141761322Y-75585395D01*
X141761324Y-75585392D01*
X142061317Y-75285400D01*
X142223527Y-75285400D01*
X142223527Y-75403000D01*
X142223527Y-75403000D01*
G37*
X142223527Y-75403000D02*
X142245212Y-75512016D01*
X142306964Y-75604436D01*
X142399384Y-75666188D01*
X142508400Y-75687873D01*
X144308400Y-75687873D01*
X144417416Y-75666188D01*
X144509836Y-75604436D01*
X144571588Y-75512016D01*
X144593273Y-75403000D01*
X144593273Y-75285400D01*
X146004127Y-75285400D01*
X146004127Y-75727000D01*
X146025812Y-75836016D01*
X146031329Y-75844273D01*
X145905410Y-75928410D01*
X145878499Y-75968685D01*
X145031283Y-76815901D01*
X144991011Y-76842810D01*
X144964102Y-76883082D01*
X144964099Y-76883085D01*
X144884390Y-77002378D01*
X144852966Y-77160362D01*
X144846727Y-77145301D01*
X144668098Y-76966673D01*
X144434709Y-76870000D01*
X143694150Y-76870000D01*
X143535400Y-77028750D01*
X143535400Y-77978000D01*
X143555400Y-77978000D01*
X143555400Y-78232000D01*
X143535400Y-78232000D01*
X143535400Y-78252000D01*
X143281400Y-78252000D01*
X143281400Y-78232000D01*
X142032150Y-78232000D01*
X141873400Y-78390750D01*
X141873400Y-78557084D01*
X140881097Y-77564781D01*
X140881097Y-77378690D01*
X141873400Y-77378690D01*
X141873400Y-77819250D01*
X142032150Y-77978000D01*
X143281400Y-77978000D01*
X143281400Y-77028750D01*
X143122650Y-76870000D01*
X142382091Y-76870000D01*
X142148702Y-76966673D01*
X141970073Y-77145301D01*
X141873400Y-77378690D01*
X140881097Y-77378690D01*
X140881097Y-76455690D01*
X140890546Y-76408187D01*
X140881097Y-76360684D01*
X140881097Y-76360680D01*
X140853107Y-76219965D01*
X140848885Y-76213647D01*
X140919939Y-76243078D01*
X141167505Y-76243078D01*
X141396227Y-76148339D01*
X141571283Y-75973283D01*
X141666022Y-75744561D01*
X141666022Y-75680695D01*
X141761322Y-75585395D01*
X141761324Y-75585392D01*
X142061317Y-75285400D01*
X142223527Y-75285400D01*
X142223527Y-75403000D01*
G36*
X137901126Y-65744442D02*
X137806495Y-65783639D01*
X137631439Y-65958695D01*
X137536700Y-66187417D01*
X137536700Y-66434983D01*
X137631439Y-66663705D01*
X137806495Y-66838761D01*
X138035217Y-66933500D01*
X138099084Y-66933500D01*
X140081200Y-68915617D01*
X140081201Y-71786474D01*
X139544905Y-72322770D01*
X139504631Y-72349681D01*
X139477720Y-72389956D01*
X139398011Y-72509249D01*
X139360572Y-72697471D01*
X139398011Y-72885693D01*
X139504631Y-73045261D01*
X139544905Y-73072171D01*
X139573020Y-73100286D01*
X139573020Y-73164153D01*
X139667759Y-73392875D01*
X139842815Y-73567931D01*
X139960333Y-73616608D01*
X139598472Y-73978470D01*
X139540616Y-73939812D01*
X139431600Y-73918127D01*
X137631600Y-73918127D01*
X137522584Y-73939812D01*
X137430164Y-74001564D01*
X137368412Y-74093984D01*
X137346727Y-74203000D01*
X137346727Y-74218800D01*
X136478436Y-74218800D01*
X136420900Y-74207355D01*
X136363364Y-74218800D01*
X136363363Y-74218800D01*
X136192957Y-74252696D01*
X136020722Y-74367779D01*
X136016188Y-74344984D01*
X135954436Y-74252564D01*
X135862016Y-74190812D01*
X135753000Y-74169127D01*
X134503000Y-74169127D01*
X134393984Y-74190812D01*
X134301564Y-74252564D01*
X134239812Y-74344984D01*
X134218127Y-74454000D01*
X134218127Y-74619800D01*
X134103035Y-74619800D01*
X134045499Y-74608355D01*
X133987963Y-74619800D01*
X133817557Y-74653696D01*
X133624315Y-74782815D01*
X133591722Y-74831594D01*
X133086917Y-75336400D01*
X132567482Y-75336400D01*
X132583873Y-75254000D01*
X132583873Y-74354000D01*
X132562188Y-74244984D01*
X132500436Y-74152564D01*
X132408016Y-74090812D01*
X132299000Y-74069127D01*
X132181400Y-74069127D01*
X132181400Y-72894616D01*
X132266918Y-72809099D01*
X132625966Y-72809099D01*
X132587810Y-72901217D01*
X132587810Y-73148783D01*
X132682549Y-73377505D01*
X132857605Y-73552561D01*
X133086327Y-73647300D01*
X133333893Y-73647300D01*
X133562615Y-73552561D01*
X133607776Y-73507400D01*
X134397008Y-73507400D01*
X134444512Y-73516849D01*
X134492016Y-73507400D01*
X134492020Y-73507400D01*
X134632735Y-73479410D01*
X134792302Y-73372790D01*
X134819213Y-73332515D01*
X135892329Y-72259400D01*
X135932601Y-72232491D01*
X135959510Y-72192219D01*
X135959512Y-72192217D01*
X135994925Y-72139217D01*
X136039221Y-72072924D01*
X136067211Y-71932209D01*
X136067211Y-71932205D01*
X136076660Y-71884702D01*
X136067211Y-71837199D01*
X136067211Y-66726801D01*
X136076660Y-66679298D01*
X136067211Y-66631795D01*
X136067211Y-66631791D01*
X136039221Y-66491076D01*
X135988993Y-66415905D01*
X135959512Y-66371783D01*
X135959510Y-66371781D01*
X135932601Y-66331509D01*
X135892329Y-66304600D01*
X134815232Y-65227503D01*
X134830648Y-65150000D01*
X134766277Y-64826385D01*
X134582963Y-64552037D01*
X134308615Y-64368723D01*
X134066684Y-64320600D01*
X132503316Y-64320600D01*
X132261385Y-64368723D01*
X132147600Y-64444752D01*
X132147600Y-63855248D01*
X132261385Y-63931277D01*
X132503316Y-63979400D01*
X134066684Y-63979400D01*
X134308615Y-63931277D01*
X134582963Y-63747963D01*
X134660180Y-63632400D01*
X135789084Y-63632400D01*
X137901126Y-65744442D01*
X137901126Y-65744442D01*
G37*
X137901126Y-65744442D02*
X137806495Y-65783639D01*
X137631439Y-65958695D01*
X137536700Y-66187417D01*
X137536700Y-66434983D01*
X137631439Y-66663705D01*
X137806495Y-66838761D01*
X138035217Y-66933500D01*
X138099084Y-66933500D01*
X140081200Y-68915617D01*
X140081201Y-71786474D01*
X139544905Y-72322770D01*
X139504631Y-72349681D01*
X139477720Y-72389956D01*
X139398011Y-72509249D01*
X139360572Y-72697471D01*
X139398011Y-72885693D01*
X139504631Y-73045261D01*
X139544905Y-73072171D01*
X139573020Y-73100286D01*
X139573020Y-73164153D01*
X139667759Y-73392875D01*
X139842815Y-73567931D01*
X139960333Y-73616608D01*
X139598472Y-73978470D01*
X139540616Y-73939812D01*
X139431600Y-73918127D01*
X137631600Y-73918127D01*
X137522584Y-73939812D01*
X137430164Y-74001564D01*
X137368412Y-74093984D01*
X137346727Y-74203000D01*
X137346727Y-74218800D01*
X136478436Y-74218800D01*
X136420900Y-74207355D01*
X136363364Y-74218800D01*
X136363363Y-74218800D01*
X136192957Y-74252696D01*
X136020722Y-74367779D01*
X136016188Y-74344984D01*
X135954436Y-74252564D01*
X135862016Y-74190812D01*
X135753000Y-74169127D01*
X134503000Y-74169127D01*
X134393984Y-74190812D01*
X134301564Y-74252564D01*
X134239812Y-74344984D01*
X134218127Y-74454000D01*
X134218127Y-74619800D01*
X134103035Y-74619800D01*
X134045499Y-74608355D01*
X133987963Y-74619800D01*
X133817557Y-74653696D01*
X133624315Y-74782815D01*
X133591722Y-74831594D01*
X133086917Y-75336400D01*
X132567482Y-75336400D01*
X132583873Y-75254000D01*
X132583873Y-74354000D01*
X132562188Y-74244984D01*
X132500436Y-74152564D01*
X132408016Y-74090812D01*
X132299000Y-74069127D01*
X132181400Y-74069127D01*
X132181400Y-72894616D01*
X132266918Y-72809099D01*
X132625966Y-72809099D01*
X132587810Y-72901217D01*
X132587810Y-73148783D01*
X132682549Y-73377505D01*
X132857605Y-73552561D01*
X133086327Y-73647300D01*
X133333893Y-73647300D01*
X133562615Y-73552561D01*
X133607776Y-73507400D01*
X134397008Y-73507400D01*
X134444512Y-73516849D01*
X134492016Y-73507400D01*
X134492020Y-73507400D01*
X134632735Y-73479410D01*
X134792302Y-73372790D01*
X134819213Y-73332515D01*
X135892329Y-72259400D01*
X135932601Y-72232491D01*
X135959510Y-72192219D01*
X135959512Y-72192217D01*
X135994925Y-72139217D01*
X136039221Y-72072924D01*
X136067211Y-71932209D01*
X136067211Y-71932205D01*
X136076660Y-71884702D01*
X136067211Y-71837199D01*
X136067211Y-66726801D01*
X136076660Y-66679298D01*
X136067211Y-66631795D01*
X136067211Y-66631791D01*
X136039221Y-66491076D01*
X135988993Y-66415905D01*
X135959512Y-66371783D01*
X135959510Y-66371781D01*
X135932601Y-66331509D01*
X135892329Y-66304600D01*
X134815232Y-65227503D01*
X134830648Y-65150000D01*
X134766277Y-64826385D01*
X134582963Y-64552037D01*
X134308615Y-64368723D01*
X134066684Y-64320600D01*
X132503316Y-64320600D01*
X132261385Y-64368723D01*
X132147600Y-64444752D01*
X132147600Y-63855248D01*
X132261385Y-63931277D01*
X132503316Y-63979400D01*
X134066684Y-63979400D01*
X134308615Y-63931277D01*
X134582963Y-63747963D01*
X134660180Y-63632400D01*
X135789084Y-63632400D01*
X137901126Y-65744442D01*
G36*
X144871369Y-62743574D02*
X144850400Y-62848993D01*
X144850400Y-62848996D01*
X144840951Y-62896500D01*
X144850400Y-62944004D01*
X144850401Y-68081033D01*
X144805239Y-68126195D01*
X144710500Y-68354917D01*
X144710500Y-68602483D01*
X144805239Y-68831205D01*
X144980295Y-69006261D01*
X145209017Y-69101000D01*
X145456583Y-69101000D01*
X145521400Y-69074152D01*
X145521400Y-69276283D01*
X145616139Y-69505005D01*
X145791195Y-69680061D01*
X146019917Y-69774800D01*
X146267483Y-69774800D01*
X146293177Y-69764157D01*
X146234639Y-69822695D01*
X146139900Y-70051417D01*
X146139900Y-70298983D01*
X146234639Y-70527705D01*
X146409695Y-70702761D01*
X146638417Y-70797500D01*
X146850164Y-70797500D01*
X146841602Y-70813854D01*
X146841197Y-70840256D01*
X146966639Y-71023000D01*
X148558000Y-71023000D01*
X148558000Y-71003000D01*
X148812000Y-71003000D01*
X148812000Y-71023000D01*
X148832000Y-71023000D01*
X148832000Y-71277000D01*
X148812000Y-71277000D01*
X148812000Y-72321783D01*
X147191657Y-73942127D01*
X146289000Y-73942127D01*
X146179984Y-73963812D01*
X146087564Y-74025564D01*
X146025812Y-74117984D01*
X146004127Y-74227000D01*
X146004127Y-74320600D01*
X144593273Y-74320600D01*
X144593273Y-74203000D01*
X144571588Y-74093984D01*
X144509836Y-74001564D01*
X144417416Y-73939812D01*
X144308400Y-73918127D01*
X142508400Y-73918127D01*
X142399384Y-73939812D01*
X142306964Y-74001564D01*
X142245212Y-74093984D01*
X142223527Y-74203000D01*
X142223527Y-74320600D01*
X141909002Y-74320600D01*
X141861499Y-74311151D01*
X141813996Y-74320600D01*
X141813992Y-74320600D01*
X141771987Y-74328955D01*
X141848453Y-74144349D01*
X141848453Y-73896783D01*
X141753714Y-73668061D01*
X141707540Y-73621887D01*
X142205009Y-73621887D01*
X142252513Y-73631336D01*
X142300017Y-73621887D01*
X142300021Y-73621887D01*
X142440736Y-73593897D01*
X142600303Y-73487277D01*
X142627214Y-73447002D01*
X143033802Y-73040415D01*
X143033804Y-73040412D01*
X143061916Y-73012300D01*
X143125783Y-73012300D01*
X143354505Y-72917561D01*
X143529561Y-72742505D01*
X143624300Y-72513783D01*
X143624300Y-72266217D01*
X143529561Y-72037495D01*
X143354505Y-71862439D01*
X143125783Y-71767700D01*
X142878217Y-71767700D01*
X142649495Y-71862439D01*
X142474439Y-72037495D01*
X142379700Y-72266217D01*
X142379700Y-72330084D01*
X142351588Y-72358196D01*
X142351585Y-72358198D01*
X142052697Y-72657087D01*
X141709979Y-72657087D01*
X141751561Y-72615505D01*
X141846300Y-72386783D01*
X141846300Y-72139217D01*
X141751561Y-71910495D01*
X141706400Y-71865334D01*
X141706400Y-71459744D01*
X146841197Y-71459744D01*
X146841602Y-71486146D01*
X147057276Y-71898118D01*
X147414187Y-72196196D01*
X147858000Y-72335000D01*
X148558000Y-72335000D01*
X148558000Y-71277000D01*
X146966639Y-71277000D01*
X146841197Y-71459744D01*
X141706400Y-71459744D01*
X141706400Y-68432602D01*
X141715849Y-68385099D01*
X141706400Y-68337596D01*
X141706400Y-68337592D01*
X141678410Y-68196877D01*
X141622550Y-68113277D01*
X141598701Y-68077584D01*
X141598699Y-68077582D01*
X141571790Y-68037310D01*
X141531518Y-68010401D01*
X136363601Y-62842485D01*
X136336690Y-62802210D01*
X136237750Y-62736100D01*
X144833796Y-62736100D01*
X144871369Y-62743574D01*
X144871369Y-62743574D01*
G37*
X144871369Y-62743574D02*
X144850400Y-62848993D01*
X144850400Y-62848996D01*
X144840951Y-62896500D01*
X144850400Y-62944004D01*
X144850401Y-68081033D01*
X144805239Y-68126195D01*
X144710500Y-68354917D01*
X144710500Y-68602483D01*
X144805239Y-68831205D01*
X144980295Y-69006261D01*
X145209017Y-69101000D01*
X145456583Y-69101000D01*
X145521400Y-69074152D01*
X145521400Y-69276283D01*
X145616139Y-69505005D01*
X145791195Y-69680061D01*
X146019917Y-69774800D01*
X146267483Y-69774800D01*
X146293177Y-69764157D01*
X146234639Y-69822695D01*
X146139900Y-70051417D01*
X146139900Y-70298983D01*
X146234639Y-70527705D01*
X146409695Y-70702761D01*
X146638417Y-70797500D01*
X146850164Y-70797500D01*
X146841602Y-70813854D01*
X146841197Y-70840256D01*
X146966639Y-71023000D01*
X148558000Y-71023000D01*
X148558000Y-71003000D01*
X148812000Y-71003000D01*
X148812000Y-71023000D01*
X148832000Y-71023000D01*
X148832000Y-71277000D01*
X148812000Y-71277000D01*
X148812000Y-72321783D01*
X147191657Y-73942127D01*
X146289000Y-73942127D01*
X146179984Y-73963812D01*
X146087564Y-74025564D01*
X146025812Y-74117984D01*
X146004127Y-74227000D01*
X146004127Y-74320600D01*
X144593273Y-74320600D01*
X144593273Y-74203000D01*
X144571588Y-74093984D01*
X144509836Y-74001564D01*
X144417416Y-73939812D01*
X144308400Y-73918127D01*
X142508400Y-73918127D01*
X142399384Y-73939812D01*
X142306964Y-74001564D01*
X142245212Y-74093984D01*
X142223527Y-74203000D01*
X142223527Y-74320600D01*
X141909002Y-74320600D01*
X141861499Y-74311151D01*
X141813996Y-74320600D01*
X141813992Y-74320600D01*
X141771987Y-74328955D01*
X141848453Y-74144349D01*
X141848453Y-73896783D01*
X141753714Y-73668061D01*
X141707540Y-73621887D01*
X142205009Y-73621887D01*
X142252513Y-73631336D01*
X142300017Y-73621887D01*
X142300021Y-73621887D01*
X142440736Y-73593897D01*
X142600303Y-73487277D01*
X142627214Y-73447002D01*
X143033802Y-73040415D01*
X143033804Y-73040412D01*
X143061916Y-73012300D01*
X143125783Y-73012300D01*
X143354505Y-72917561D01*
X143529561Y-72742505D01*
X143624300Y-72513783D01*
X143624300Y-72266217D01*
X143529561Y-72037495D01*
X143354505Y-71862439D01*
X143125783Y-71767700D01*
X142878217Y-71767700D01*
X142649495Y-71862439D01*
X142474439Y-72037495D01*
X142379700Y-72266217D01*
X142379700Y-72330084D01*
X142351588Y-72358196D01*
X142351585Y-72358198D01*
X142052697Y-72657087D01*
X141709979Y-72657087D01*
X141751561Y-72615505D01*
X141846300Y-72386783D01*
X141846300Y-72139217D01*
X141751561Y-71910495D01*
X141706400Y-71865334D01*
X141706400Y-71459744D01*
X146841197Y-71459744D01*
X146841602Y-71486146D01*
X147057276Y-71898118D01*
X147414187Y-72196196D01*
X147858000Y-72335000D01*
X148558000Y-72335000D01*
X148558000Y-71277000D01*
X146966639Y-71277000D01*
X146841197Y-71459744D01*
X141706400Y-71459744D01*
X141706400Y-68432602D01*
X141715849Y-68385099D01*
X141706400Y-68337596D01*
X141706400Y-68337592D01*
X141678410Y-68196877D01*
X141622550Y-68113277D01*
X141598701Y-68077584D01*
X141598699Y-68077582D01*
X141571790Y-68037310D01*
X141531518Y-68010401D01*
X136363601Y-62842485D01*
X136336690Y-62802210D01*
X136237750Y-62736100D01*
X144833796Y-62736100D01*
X144871369Y-62743574D01*
M02*
