%TF.GenerationSoftware,KiCad,Pcbnew,5.0-dev-unknown-d043ef5~62~ubuntu16.04.1*%
%TF.CreationDate,2018-02-24T21:05:52-07:00*%
%TF.ProjectId,ESP12-Break-02,45535031322D427265616B2D30322E6B,rev?*%
%TF.SameCoordinates,Original*%
%TF.FileFunction,Profile,NP*%
%FSLAX46Y46*%
G04 Gerber Fmt 4.6, Leading zero omitted, Abs format (unit mm)*
G04 Created by KiCad (PCBNEW 5.0-dev-unknown-d043ef5~62~ubuntu16.04.1) date Sat Feb 24 21:05:52 2018*
%MOMM*%
%LPD*%
G01*
G04 APERTURE LIST*
%ADD10C,0.150000*%
G04 APERTURE END LIST*
D10*
X148844000Y-91567000D02*
X147701000Y-90170000D01*
X146939000Y-104140000D02*
X146939000Y-106680000D01*
X146939000Y-106680000D02*
X140335000Y-110744000D01*
X147955000Y-102870000D02*
X146939000Y-104140000D01*
X148844000Y-93980000D02*
X148844000Y-91567000D01*
X148971000Y-99060000D02*
X148971000Y-101600000D01*
X143510000Y-48260000D02*
X138430000Y-48260000D01*
X138430000Y-45720000D02*
X143510000Y-45720000D01*
X143510000Y-45720000D02*
G75*
G02X143510000Y-48260000I0J-1270000D01*
G01*
X138430000Y-48260000D02*
G75*
G02X138430000Y-45720000I0J1270000D01*
G01*
X129540000Y-46990000D02*
X129540000Y-45720000D01*
X152400000Y-45720000D02*
X152400000Y-46990000D01*
X129540000Y-57150000D02*
X129540000Y-46990000D01*
X152400000Y-46990000D02*
X152400000Y-57150000D01*
X133350000Y-103505000D02*
X133350000Y-106045000D01*
X147828000Y-85090000D02*
X148209000Y-84709000D01*
X148717000Y-86360000D02*
X147828000Y-85090000D01*
X147701000Y-87630000D02*
X148717000Y-86360000D01*
X148717000Y-88900000D02*
X147701000Y-87630000D01*
X147701000Y-90170000D02*
X148717000Y-88900000D01*
X147701000Y-95250000D02*
X148844000Y-93980000D01*
X148971000Y-96520000D02*
X147701000Y-95250000D01*
X147701000Y-97790000D02*
X148971000Y-96520000D01*
X148971000Y-99060000D02*
X147701000Y-97790000D01*
X148971000Y-101600000D02*
X147955000Y-102870000D01*
X149479000Y-81280000D02*
X151130000Y-81280000D01*
X133350000Y-106045000D02*
X140335000Y-110744000D01*
X133350000Y-82550000D02*
X133350000Y-103505000D01*
X130810000Y-81280000D02*
X132080000Y-81280000D01*
X129540000Y-57150000D02*
X129540000Y-80010000D01*
X151130000Y-44450000D02*
X130810000Y-44450000D01*
X152400000Y-80010000D02*
X152400000Y-57150000D01*
X148209000Y-84709000D02*
X148209000Y-82550000D01*
X148209000Y-82550000D02*
G75*
G02X149479000Y-81280000I1270000J0D01*
G01*
X132080000Y-81280000D02*
G75*
G02X133350000Y-82550000I0J-1270000D01*
G01*
X130810000Y-81280000D02*
G75*
G02X129540000Y-80010000I0J1270000D01*
G01*
X129540000Y-45720000D02*
G75*
G02X130810000Y-44450000I1270000J0D01*
G01*
X151130000Y-44450000D02*
G75*
G02X152400000Y-45720000I0J-1270000D01*
G01*
X152400000Y-80010000D02*
G75*
G02X151130000Y-81280000I-1270000J0D01*
G01*
M02*
