M48
;DRILL file {KiCad 5.0-dev-unknown-d043ef5~62~ubuntu16.04.1} date Sat Feb 24 21:06:01 2018
;FORMAT={-:-/ absolute / inch / decimal}
FMAT,2
INCH,TZ
T1C0.0130
%
G90
G05
M72
T1
X5.135Y-3.162
X5.1618Y-2.7209
X5.165Y-2.649
X5.183Y-3.127
X5.2445Y-2.875
X5.2645Y-3.1218
X5.2984Y-3.3486
X5.2984Y-3.5131
X5.2984Y-3.9058
X5.319Y-3.222
X5.32Y-3.06
X5.32Y-4.085
X5.3261Y-2.249
X5.3261Y-2.3277
X5.328Y-3.698
X5.3357Y-3.9058
X5.3437Y-2.4234
X5.352Y-3.167
X5.3569Y-3.4431
X5.357Y-3.538
X5.395Y-3.09
X5.4Y-2.695
X5.405Y-3.835
X5.41Y-3.225
X5.415Y-3.405
X5.4163Y-3.7808
X5.4386Y-3.6579
X5.4393Y-2.6107
X5.445Y-2.365
X5.45Y-3.395
X5.465Y-3.44
X5.4654Y-3.5555
X5.4759Y-3.0041
X5.4771Y-3.252
X5.4774Y-3.1451
X5.49Y-3.36
X5.5179Y-3.7808
X5.5195Y-2.8756
X5.535Y-3.397
X5.536Y-3.12
X5.5375Y-3.268
X5.545Y-4.08
X5.5529Y-2.9772
X5.56Y-2.845
X5.5601Y-2.9142
X5.58Y-3.545
X5.59Y-3.66
X5.595Y-3.74
X5.596Y-3.217
X5.6231Y-3.4611
X5.625Y-2.575
X5.6287Y-3.5463
X5.63Y-2.85
X5.6431Y-3.9568
X5.645Y-3.075
X5.6691Y-3.1488
X5.679Y-3.4612
X5.6838Y-3.5333
X5.715Y-2.835
X5.7218Y-2.696
X5.7269Y-2.9731
X5.7317Y-3.1494
X5.735Y-3.845
X5.75Y-2.27
X5.7537Y-2.7225
X5.755Y-3.95
X5.756Y-3.4155
X5.759Y-3.117
X5.778Y-2.7628
X5.783Y-3.585
X5.7902Y-3.4409
X5.822Y-3.646
X5.8294Y-2.5606
X5.8449Y-2.944
X5.909Y-2.947
X5.924Y-2.905
X5.9523Y-3.1497
T0
M30
